<svg width="137" height="137" viewBox="0 0 137 137" fill="none" xmlns="http://www.w3.org/2000/svg">
<g clip-path="url(#clip0_23_341)">
<path fill-rule="evenodd" clip-rule="evenodd" d="M129.814 114.709H7.18613C3.17881 114.709 -0.0578613 111.473 -0.0578613 107.581V29.5347C-0.0578613 25.5274 3.17881 22.2907 7.18613 22.2907H129.814C133.821 22.2907 137.058 25.5274 137.058 29.5347V107.465C137.058 111.473 133.821 114.709 129.814 114.709ZM7.18613 26.2017C5.41366 26.2017 3.85312 27.7622 3.85312 29.5347V107.465C3.85312 109.238 5.29807 110.702 7.18613 110.702H129.814C131.702 110.702 133.147 109.238 133.147 107.465V29.5347C133.147 27.7622 131.586 26.2017 129.814 26.2017H7.18613Z" fill="black"/>
<path fill-rule="evenodd" clip-rule="evenodd" d="M36.7401 80.9362C23.7934 80.9362 13.3127 70.4555 13.3127 57.5281C13.3127 44.5814 23.7934 34.12 36.7401 34.12C49.6675 34.12 60.1482 44.5814 60.1482 57.5281C60.2445 70.3399 49.6675 80.9362 36.7401 80.9362ZM36.7401 37.8961C25.9127 37.8961 17.2237 46.7006 17.2237 57.4125C17.2237 68.1051 26.0283 76.9096 36.7401 76.9096C47.4327 76.9096 56.2372 68.2207 56.2372 57.4125C56.3528 46.7006 47.5483 37.8961 36.7401 37.8961Z" fill="black"/>
<path fill-rule="evenodd" clip-rule="evenodd" d="M121.568 44.2538H74.6362C73.5188 44.2538 72.6326 43.3676 72.6326 42.2502C72.6326 41.1328 73.5188 40.2465 74.6362 40.2465H121.568C122.685 40.2465 123.572 41.1328 123.572 42.2502C123.572 43.3676 122.685 44.2538 121.568 44.2538Z" fill="black"/>
<path fill-rule="evenodd" clip-rule="evenodd" d="M121.568 59.4161H74.6362C73.5188 59.4161 72.6326 58.5299 72.6326 57.4125C72.6326 56.295 73.5188 55.4088 74.6362 55.4088H121.568C122.685 55.4088 123.572 56.295 123.572 57.4125C123.572 58.5299 122.685 59.4161 121.568 59.4161Z" fill="black"/>
<path fill-rule="evenodd" clip-rule="evenodd" d="M121.568 74.5784H74.6362C73.5188 74.5784 72.6326 73.6922 72.6326 72.5747C72.6326 71.4573 73.5188 70.5711 74.6362 70.5711H121.568C122.685 70.5711 123.572 71.4573 123.572 72.5747C123.572 73.6922 122.685 74.5784 121.568 74.5784Z" fill="black"/>
<path fill-rule="evenodd" clip-rule="evenodd" d="M121.568 103.901H15.22C14.1025 103.901 13.2163 102.996 13.2163 101.878V93.6324C13.2163 92.515 14.1025 91.6288 15.22 91.6288H121.568C122.685 91.6288 123.572 92.515 123.572 93.6324V101.878C123.572 102.996 122.685 103.901 121.568 103.901ZM17.2236 99.9902H119.661V95.6361H17.2236V99.9902Z" fill="black"/>
<path fill-rule="evenodd" clip-rule="evenodd" d="M53.3472 73.0179C52.6729 73.0179 51.9986 72.6903 51.6711 72.016C48.6656 66.7757 42.8665 63.4234 36.74 63.4234C30.5941 63.4234 24.9107 66.7757 21.7896 72.016C21.2309 72.9023 20.0171 73.2298 19.1116 72.6903C18.2254 72.1316 17.8979 70.8986 18.4566 70.0124C22.2327 63.539 29.2648 59.5317 36.74 59.5317C44.3115 59.5317 51.3243 63.539 55.0041 70.0124C55.5628 70.8986 55.2353 72.1316 54.349 72.6903C54.0022 72.9023 53.6747 73.0179 53.3472 73.0179Z" fill="black"/>
<path fill-rule="evenodd" clip-rule="evenodd" d="M36.7401 57.4125C31.7117 57.4125 27.7043 53.4052 27.7043 48.3768C27.7043 43.3676 31.7117 39.341 36.7401 39.341C41.7492 39.341 45.7565 43.3676 45.7565 48.3768C45.7565 53.4052 41.7492 57.4125 36.7401 57.4125ZM36.7401 43.3676C33.8309 43.3676 31.5961 45.6025 31.5961 48.4923C31.5961 51.2859 33.9465 53.6171 36.7401 53.6171C39.5144 53.6171 41.8648 51.2859 41.8648 48.4923C41.8648 45.6025 39.63 43.3676 36.7401 43.3676Z" fill="black"/>
</g>
<defs>
<clipPath id="clip0_23_341">
<rect width="137" height="137" fill="white"/>
</clipPath>
</defs>
</svg>
