<svg width="47" height="47" viewBox="0 0 47 47" fill="none" xmlns="http://www.w3.org/2000/svg">
<g clip-path="url(#clip0_48_130)">
<mask id="mask0_48_130" style="mask-type:luminance" maskUnits="userSpaceOnUse" x="0" y="0" width="47" height="47">
<path d="M47 0H0V47H47V0Z" fill="white"/>
</mask>
<g mask="url(#mask0_48_130)">
<path d="M46.8667 24.7691C46.6143 23.3006 46.0102 21.9152 45.106 20.7309C44.2018 19.5467 43.0245 18.5989 41.6745 17.9686C40.3244 17.3382 38.8419 17.044 37.3535 17.111C35.865 17.178 34.4149 17.6043 33.1271 18.3536L30.7849 15.0401L31.6701 12.9564H33.9339C34.0897 12.9564 34.2392 12.8945 34.3493 12.7843C34.4595 12.6741 34.5214 12.5247 34.5214 12.3689C34.5214 12.213 34.4595 12.0636 34.3493 11.9534C34.2392 11.8433 34.0897 11.7814 33.9339 11.7814H27.6516C27.4958 11.7814 27.3463 11.8433 27.2362 11.9534C27.1259 12.0636 27.0641 12.213 27.0641 12.3689C27.0641 12.5247 27.1259 12.6741 27.2362 12.7843C27.3463 12.8945 27.4958 12.9564 27.6516 12.9564H30.3932L29.7039 14.5779L14.4681 14.3507L15.2279 12.3532C15.253 12.2896 15.2622 12.2207 15.2545 12.1527C15.2468 12.0848 15.2226 12.0197 15.1839 11.9632C15.1453 11.9068 15.0934 11.8607 15.0328 11.829C14.9721 11.7972 14.9046 11.7809 14.8362 11.7814H11.3034L11.1702 11.7971C10.8032 11.8756 10.4595 12.0381 10.1659 12.2719C9.87232 12.5057 9.63693 12.8043 9.47823 13.1444C9.36762 13.5629 9.36723 14.0028 9.47705 14.4215C9.58687 14.8401 9.80315 15.2232 10.1049 15.5336C10.1994 15.6572 10.3392 15.7382 10.4934 15.7587C10.6477 15.7793 10.8038 15.7377 10.9274 15.6432C11.051 15.5487 11.132 15.409 11.1526 15.2546C11.1731 15.1004 11.1316 14.9444 11.0371 14.8207C10.6376 14.2959 10.4809 13.8415 10.5827 13.5517C10.6676 13.4042 10.7814 13.2753 10.9174 13.173C11.0534 13.0707 11.2086 12.997 11.3739 12.9564H13.7396L11.9927 17.5154C10.9186 17.1837 9.79352 17.0484 8.67139 17.1159C6.35427 17.2831 4.18244 18.3071 2.5793 19.9885C0.976153 21.6698 0.0565954 23.8879 -0.00010915 26.2104C-0.0244635 27.8746 0.401166 29.5145 1.23181 30.9569C2.06246 32.3992 3.26727 33.5904 4.71895 34.4046C6.17064 35.2187 7.81529 35.6257 9.47916 35.5824C11.143 35.5391 12.7642 35.0472 14.1716 34.1586C15.5791 33.27 16.7203 32.0178 17.4748 30.5343C18.2293 29.0507 18.5691 27.3908 18.4582 25.7302C18.3474 24.0694 17.79 22.4694 16.845 21.0993C15.8999 19.7293 14.6024 18.6398 13.0894 17.9462L13.8336 15.9879L15.9881 18.2014C16.0431 18.2579 16.1087 18.3027 16.1814 18.3333C16.2539 18.3639 16.3319 18.3797 16.4106 18.3797C16.4894 18.3797 16.5674 18.3638 16.6399 18.3331C16.7125 18.3025 16.7782 18.2576 16.8331 18.2011C16.9402 18.091 17 17.9433 16.9999 17.7897C16.9997 17.6361 16.9396 17.4886 16.8323 17.3786L15.0321 15.5336L29.2026 15.7529L24.9647 25.7247L23.1237 23.8328C23.0689 23.7764 23.0033 23.7316 22.9307 23.7011C22.8582 23.6706 22.7802 23.6549 22.7015 23.6552C22.6229 23.6554 22.545 23.6714 22.4726 23.7023C22.4002 23.7332 22.3348 23.7783 22.2803 23.835C22.1746 23.9448 22.1157 24.0913 22.1161 24.2436C22.1165 24.396 22.1761 24.5422 22.2824 24.6514L24.1344 26.5551C24.3804 26.8079 24.6746 27.0089 24.9996 27.1461C25.3245 27.2833 25.6737 27.3541 26.0265 27.354H28.5759C28.7118 28.5836 29.0932 29.7734 29.6975 30.8528C30.3018 31.9323 31.1166 32.8793 32.0938 33.638C33.071 34.3966 34.1905 34.9512 35.386 35.2691C36.5816 35.5871 37.8287 35.6616 39.0536 35.4885C40.2785 35.3154 41.4562 34.8981 42.5168 34.2614C43.5773 33.6247 44.4993 32.7814 45.228 31.7817C45.9566 30.782 46.4772 29.6462 46.7586 28.4416C47.0402 27.237 47.0769 25.9881 46.8667 24.7691ZM17.3037 26.3436C17.3029 27.9382 16.8294 29.4968 15.943 30.8224C15.0566 32.148 13.7971 33.1811 12.3236 33.7909C10.8502 34.4008 9.22905 34.5602 7.66506 34.2489C6.10108 33.9376 4.6645 33.1696 3.53691 32.042C2.40931 30.9144 1.64133 29.4779 1.33004 27.9139C1.01874 26.3499 1.17812 24.7287 1.78801 23.2553C2.3979 21.7819 3.43093 20.5224 4.75652 19.636C6.0821 18.7495 7.64074 18.276 9.23539 18.2752C10.0264 18.2726 10.8133 18.3888 11.5697 18.6199L8.68706 26.1321C8.63324 26.2786 8.63928 26.4404 8.70374 26.5826C8.76821 26.7247 8.88603 26.8358 9.03173 26.8919C9.09713 26.9155 9.16583 26.9287 9.23531 26.9311C9.35524 26.932 9.47251 26.8965 9.57183 26.8294C9.67116 26.7623 9.74777 26.6666 9.79148 26.5551L12.6663 19.0429C14.052 19.6948 15.2237 20.7274 16.0448 22.02C16.8659 23.3127 17.3025 24.8122 17.3037 26.3436ZM28.5289 26.179H26.0457L30.2366 16.3169L32.1479 19.0116C31.0432 19.856 30.1438 20.9394 29.5171 22.1806C28.8904 23.4218 28.5525 24.7887 28.5289 26.179ZM32.8294 19.9672L37.2317 26.179H29.6961C29.7218 24.9754 30.0164 23.7928 30.5587 22.718C31.1008 21.6431 31.8767 20.7032 32.8294 19.9672ZM37.7644 34.404C35.8013 34.4021 33.9059 33.6855 32.4326 32.3881C30.9593 31.0907 30.0088 29.3012 29.7587 27.354H38.3676C38.4753 27.3549 38.5813 27.3262 38.6738 27.2709C38.7664 27.2157 38.842 27.136 38.8924 27.0407C38.9429 26.9448 38.9652 26.8365 38.9569 26.7284C38.9486 26.6203 38.9099 26.5168 38.8454 26.4297L33.8086 19.3171C35.014 18.6315 36.3776 18.2723 37.7644 18.2752C39.9032 18.2752 41.9544 19.1248 43.4668 20.6372C44.9792 22.1496 45.8288 24.2008 45.8288 26.3397C45.8288 28.4785 44.9792 30.5296 43.4668 32.042C41.9544 33.5544 39.9032 34.404 37.7644 34.404ZM17.9042 20.1629L20.3667 22.6901C20.4215 22.7464 20.4872 22.7912 20.5597 22.8216C20.6323 22.852 20.7101 22.8676 20.7888 22.8674C20.8674 22.8671 20.9452 22.8512 21.0176 22.8202C21.0899 22.7894 21.1553 22.7442 21.2098 22.6876C21.3156 22.5778 21.3745 22.4311 21.374 22.2787C21.3735 22.1263 21.3138 21.98 21.2075 21.8708L18.7449 19.3437C18.69 19.2873 18.6243 19.2427 18.5519 19.2122C18.4794 19.1817 18.4015 19.1661 18.3228 19.1664C18.2442 19.1666 18.1664 19.1827 18.094 19.2135C18.0217 19.2444 17.9563 19.2895 17.9018 19.3461C17.796 19.456 17.7371 19.6026 17.7376 19.755C17.7381 19.9075 17.7978 20.0537 17.9042 20.1629Z" fill="black"/>
</g>
</g>
<defs>
<clipPath id="clip0_48_130">
<rect width="47" height="47" fill="white"/>
</clipPath>
</defs>
</svg>
