<svg width="47" height="47" viewBox="0 0 47 47" fill="none" xmlns="http://www.w3.org/2000/svg">
<path d="M45.0417 20.5625V12.7292H39.1667V6.85417H31.3333V20.5625H15.6667V6.85417H7.83333V12.7292H1.95833V20.5625H0V26.4375H1.95833V34.2708H7.83333V40.1458H15.6667V26.4375H31.3333V40.1458H39.1667V34.2708H45.0417V26.4375H47V20.5625H45.0417ZM7.83333 32.3125H3.91667V26.4375V20.5625V14.6875H7.83333V32.3125ZM13.7083 20.5625V26.4375V38.1875H9.79167V34.2708V12.7292V8.81251H13.7083V20.5625ZM31.3333 24.4792H15.6667V22.5208H31.3333V24.4792ZM37.2083 12.7292V34.2708V38.1875H33.2917V26.4375V20.5625V8.81251H37.2083V12.7292ZM43.0833 20.5625V26.4375V32.3125H39.1667V14.6875H43.0833V20.5625Z" fill="black"/>
</svg>
