<svg width="47" height="47" viewBox="0 0 47 47" fill="none" xmlns="http://www.w3.org/2000/svg">
<path d="M9.28254 39.5387C8.4425 39.5394 7.61004 39.3799 6.82973 39.0687L2.66582 37.4017C2.57218 37.364 2.48733 37.3073 2.41657 37.2353C2.34581 37.1632 2.29067 37.0774 2.25457 36.9831C2.21308 36.8894 2.19165 36.7881 2.19165 36.6857C2.19165 36.5832 2.21308 36.4819 2.25457 36.3883L15.4733 9.95077C15.535 9.83048 15.6286 9.72953 15.7439 9.65903C15.8592 9.58854 15.9918 9.55124 16.1269 9.55124C16.2621 9.55124 16.3946 9.58854 16.5099 9.65903C16.6253 9.72953 16.7189 9.83048 16.7805 9.95077L29.9993 36.3883C30.0474 36.4879 30.0724 36.5971 30.0724 36.7077C30.0724 36.8184 30.0474 36.9276 29.9993 37.0272C29.9528 37.1271 29.8845 37.2153 29.7993 37.2852C29.7141 37.3551 29.6143 37.405 29.5072 37.4311L26.3421 38.2242C25.3901 38.4612 24.3974 38.4834 23.4358 38.289C22.4743 38.0947 21.568 37.6887 20.7829 37.1006C19.8715 36.4169 18.7589 36.0552 17.6197 36.0725C16.4806 36.0898 15.3794 36.485 14.4893 37.1961L13.3657 38.092C12.2058 39.0192 10.7675 39.5289 9.28254 39.5387ZM3.95098 36.3369L7.34379 37.7028C8.18871 38.0477 9.11022 38.1615 10.0136 38.0324C10.9171 37.9034 11.7699 37.5361 12.4844 36.9684L13.608 36.0725C14.7511 35.1612 16.1641 34.6547 17.6258 34.6321C19.0875 34.6095 20.5154 35.0722 21.6861 35.9476C22.297 36.4053 23.0021 36.7212 23.7503 36.8723C24.4985 37.0235 25.271 37.0062 26.0116 36.8216L28.2882 36.2487L16.1563 11.9262L3.95098 36.3369Z" fill="black"/>
<path d="M41.125 33.0469H36.2854C35.4896 33.0484 34.7046 32.8622 33.9942 32.5034L32.3125 31.6736C31.5464 31.2959 30.6727 31.1971 29.8417 31.3941C29.0106 31.5912 28.2743 32.0717 27.7593 32.7531C27.6846 32.8538 27.5852 32.9337 27.4708 32.9851C27.3564 33.0365 27.2307 33.0578 27.1058 33.0469C26.9816 33.035 26.8625 32.9917 26.7597 32.921C26.6569 32.8503 26.5738 32.7546 26.5183 32.643L20.2761 20.1586C20.2244 20.0561 20.1975 19.9429 20.1975 19.8281C20.1975 19.7133 20.2244 19.6001 20.2761 19.4976L27.2526 5.54452C27.3143 5.42423 27.4079 5.32328 27.5232 5.25278C27.6385 5.18229 27.7711 5.14499 27.9062 5.14499C28.0414 5.14499 28.1739 5.18229 28.2892 5.25278C28.4046 5.32328 28.4982 5.42423 28.5598 5.54452L41.7786 31.982C41.8349 32.0938 41.8617 32.2181 41.8565 32.3432C41.8512 32.4683 41.8141 32.59 41.7486 32.6967C41.6831 32.8033 41.5915 32.8915 41.4823 32.9528C41.3732 33.0141 41.2502 33.0465 41.125 33.0469ZM30.6895 29.8156C31.4875 29.8159 32.2745 30.0019 32.9881 30.359L34.6478 31.1889C35.1562 31.4437 35.7168 31.5769 36.2854 31.5781H39.9573L27.9062 7.51999L21.7522 19.8281L27.3628 31.042C28.2912 30.2516 29.4702 29.817 30.6895 29.8156Z" fill="black"/>
<path d="M19.8281 18.3594H12.4844C12.2896 18.3594 12.1028 18.282 11.9651 18.1443C11.8274 18.0066 11.75 17.8198 11.75 17.625C11.75 17.4302 11.8274 17.2434 11.9651 17.1057C12.1028 16.968 12.2896 16.8906 12.4844 16.8906H19.8281C20.0229 16.8906 20.2097 16.968 20.3474 17.1057C20.4851 17.2434 20.5625 17.4302 20.5625 17.625C20.5625 17.8198 20.4851 18.0066 20.3474 18.1443C20.2097 18.282 20.0229 18.3594 19.8281 18.3594Z" fill="black"/>
<path d="M31.2109 13.2188H24.6016C24.4068 13.2188 24.22 13.1414 24.0823 13.0037C23.9446 12.8659 23.8672 12.6791 23.8672 12.4844C23.8672 12.2896 23.9446 12.1028 24.0823 11.9651C24.22 11.8274 24.4068 11.75 24.6016 11.75H31.2109C31.4057 11.75 31.5925 11.8274 31.7302 11.9651C31.8679 12.1028 31.9453 12.2896 31.9453 12.4844C31.9453 12.6791 31.8679 12.8659 31.7302 13.0037C31.5925 13.1414 31.4057 13.2188 31.2109 13.2188Z" fill="black"/>
<path d="M44.0625 33.0469H41.125C40.9302 33.0469 40.7434 32.9695 40.6057 32.8318C40.468 32.6941 40.3906 32.5073 40.3906 32.3125C40.3906 32.1177 40.468 31.9309 40.6057 31.7932C40.7434 31.6555 40.9302 31.5781 41.125 31.5781H44.0625C44.2573 31.5781 44.4441 31.6555 44.5818 31.7932C44.7195 31.9309 44.7969 32.1177 44.7969 32.3125C44.7969 32.5073 44.7195 32.6941 44.5818 32.8318C44.4441 32.9695 44.2573 33.0469 44.0625 33.0469Z" fill="black"/>
<path d="M33.7812 37.4531H29.375C29.1802 37.4531 28.9934 37.3758 28.8557 37.238C28.718 37.1003 28.6406 36.9135 28.6406 36.7188C28.6406 36.524 28.718 36.3372 28.8557 36.1995C28.9934 36.0617 29.1802 35.9844 29.375 35.9844H33.7812C33.976 35.9844 34.1628 36.0617 34.3005 36.1995C34.4383 36.3372 34.5156 36.524 34.5156 36.7188C34.5156 36.9135 34.4383 37.1003 34.3005 37.238C34.1628 37.3758 33.976 37.4531 33.7812 37.4531Z" fill="black"/>
</svg>
