<svg width="48" height="48" viewBox="0 0 48 48" fill="none" xmlns="http://www.w3.org/2000/svg">
<g clip-path="url(#clip0_23_96)">
<path d="M46.5947 15.9485C44.4431 9.91332 40.0702 5.07715 34.2813 2.33087C28.4926 -0.415568 21.9807 -0.74311 15.9455 1.40845C9.91026 3.56001 5.07392 7.93294 2.32764 13.7218C-0.418472 19.5107 -0.746015 26.0224 1.40538 32.0578C1.58648 32.5658 2.14524 32.8304 2.65291 32.6496C3.1609 32.4685 3.4258 31.9101 3.2447 31.4021C1.26822 25.8581 1.56907 19.8763 4.09178 14.5586C6.61449 9.24099 11.0571 5.22392 16.601 3.2476C22.145 1.27128 28.127 1.5723 33.4445 4.09485C38.7623 6.61756 42.7792 11.0601 44.7557 16.6041C46.732 22.1481 46.4311 28.1299 43.9084 33.4476C41.3857 38.7652 36.9432 42.7823 31.3992 44.7586C25.1853 46.9736 18.3688 46.3032 12.6977 42.9193C12.2343 42.6428 11.6353 42.7943 11.3591 43.2574C11.0828 43.7205 11.2341 44.3197 11.6972 44.596C15.4733 46.8493 19.715 47.9972 23.9887 47.9971C26.7018 47.9971 29.4282 47.5342 32.0548 46.5979C38.0901 44.4463 42.9261 40.0734 45.6724 34.2846C48.4187 28.4955 48.7462 21.9837 46.5947 15.9485Z" fill="black"/>
<path d="M34.7392 24.0032C34.7392 23.4641 34.302 23.0269 33.7629 23.0269H9.44863C8.9094 23.0269 8.47235 23.4641 8.47235 24.0032C8.47235 24.5422 8.9094 24.9794 9.44863 24.9794H33.7629C34.302 24.9794 34.7392 24.5422 34.7392 24.0032Z" fill="black"/>
<path d="M26.9594 34.2146C26.578 34.5958 26.578 35.214 26.9594 35.5952C27.1499 35.7858 27.3999 35.8811 27.6496 35.8811C27.8994 35.8811 28.1493 35.7858 28.3399 35.5952L39.2417 24.6934C39.6231 24.3122 39.6231 23.694 39.2417 23.3128L28.3399 12.411C27.9588 12.0298 27.3403 12.0298 26.9594 12.411C26.578 12.7922 26.578 13.4104 26.9594 13.7916L37.1708 24.003L26.9594 34.2146Z" fill="black"/>
</g>
<defs>
<clipPath id="clip0_23_96">
<rect width="48" height="48" fill="white"/>
</clipPath>
</defs>
</svg>
