<svg width="336" height="336" viewBox="0 0 336 336" fill="none" xmlns="http://www.w3.org/2000/svg">
<path d="M168 14.4375C137.628 14.4375 107.938 23.4438 82.6854 40.3174C57.4319 57.1909 37.7496 81.1744 26.1268 109.234C14.504 137.294 11.463 168.17 17.3882 197.959C23.3135 227.747 37.9389 255.109 59.4148 276.585C80.8909 298.061 108.253 312.687 138.041 318.612C167.83 324.537 198.706 321.496 226.766 309.873C254.826 298.25 278.809 278.568 295.683 253.315C312.556 228.062 321.562 198.372 321.562 168C321.521 127.286 305.328 88.2504 276.539 59.461C247.75 30.6714 208.715 14.4792 168 14.4375ZM168 27.5625C194.415 27.5437 220.299 34.9807 242.675 49.0181C265.051 63.0556 283.012 83.1232 294.49 106.914C305.969 130.705 310.5 157.252 307.562 183.503C304.624 209.754 294.337 234.643 277.883 255.308C270.661 238.711 259.763 223.973 246.011 212.204C232.26 200.436 216.015 191.945 198.503 187.372C208.508 180.807 216.128 171.188 220.23 159.946C224.331 148.704 224.696 136.438 221.27 124.972C217.844 113.506 210.81 103.451 201.213 96.3023C191.615 89.1534 179.967 85.292 168 85.292C156.033 85.292 144.385 89.1534 134.788 96.3023C125.19 103.451 118.156 113.506 114.73 124.972C111.304 136.438 111.669 148.704 115.77 159.946C119.872 171.188 127.492 180.807 137.498 187.372C119.985 191.945 103.74 200.436 89.9887 212.204C76.2379 223.973 65.3399 238.711 58.1175 255.308C41.6638 234.643 31.3765 209.754 28.4385 183.503C25.5006 157.252 30.0314 130.705 41.5099 106.914C52.9883 83.1232 70.9485 63.0556 93.325 49.0181C115.701 34.9807 141.585 27.5437 168 27.5625ZM168 183.383C159.6 183.383 151.388 180.891 144.403 176.225C137.419 171.557 131.975 164.925 128.76 157.163C125.546 149.403 124.705 140.863 126.344 132.624C127.982 124.385 132.028 116.817 137.967 110.877C143.907 104.938 151.475 100.892 159.714 99.2533C167.953 97.6148 176.493 98.4559 184.253 101.67C192.015 104.885 198.648 110.329 203.315 117.313C207.981 124.298 210.473 132.509 210.473 140.91C210.459 152.17 205.98 162.965 198.017 170.927C190.055 178.89 179.26 183.369 168 183.383ZM168 308.438C149.356 308.461 130.895 304.757 113.701 297.545C96.5081 290.332 80.9303 279.756 67.8825 266.438C75.4205 245.951 89.0615 228.271 106.965 215.782C124.868 203.293 146.171 196.596 168 196.596C189.829 196.596 211.132 203.293 229.035 215.782C246.938 228.271 260.58 245.951 268.117 266.438C255.07 279.756 239.492 290.332 222.299 297.545C205.106 304.757 186.645 308.461 168 308.438Z" fill="black"/>
</svg>
