<svg width="116" height="116" viewBox="0 0 116 116" fill="none" xmlns="http://www.w3.org/2000/svg">
<path d="M108.08 22H8.32C7.044 22 6 23.044 6 24.32V91.6C6 91.6 6 91.6 6 91.716C6 91.832 6 91.832 6 91.948C6 92.064 6 92.064 6 92.18C6 92.296 6 92.296 6.116 92.412C6.116 92.528 6.116 92.528 6.232 92.644C6.232 92.76 6.348 92.76 6.348 92.876C6.348 92.992 6.464 92.992 6.464 93.108C6.464 93.108 6.464 93.108 6.464 93.224C6.464 93.224 6.464 93.224 6.58 93.34L6.696 93.456L6.812 93.572C6.812 93.572 6.928 93.688 7.044 93.688C7.16 93.688 7.16 93.804 7.276 93.804C7.392 93.804 7.392 93.92 7.508 93.92C7.624 93.92 7.624 93.92 7.74 94.036C7.856 94.036 7.856 94.036 7.972 94.036C8.088 94.036 8.088 94.036 8.204 94.036H8.32H108.08C108.312 94.036 108.428 94.036 108.544 94.036H108.66C108.776 94.036 108.892 93.92 109.008 93.92L109.124 93.804C109.24 93.804 109.356 93.688 109.356 93.572L109.472 93.456C109.588 93.34 109.588 93.34 109.704 93.224L109.82 93.108C109.82 93.108 109.82 93.108 109.82 92.992C109.82 92.876 109.936 92.876 109.936 92.76C109.936 92.76 110.052 92.644 110.052 92.528C110.052 92.412 110.052 92.412 110.168 92.296C110.284 92.18 110.168 92.18 110.284 92.064C110.284 91.948 110.284 91.948 110.284 91.832C110.284 91.716 110.284 91.716 110.284 91.6C110.284 91.6 110.284 91.6 110.284 91.484V24.32C110.4 23.044 109.356 22 108.08 22ZM10.64 37.196L41.96 62.02L10.64 86.844V37.196ZM15.048 89.28L45.788 64.92L56.808 73.62C57.272 73.968 57.736 74.084 58.2 74.084C58.664 74.084 59.244 73.968 59.592 73.62L70.612 64.92L101.352 89.28H15.048ZM105.76 86.844L74.44 62.02L105.76 37.196V86.844ZM105.76 31.28L104.368 32.44L58.2 68.98L12.032 32.44L10.64 31.28V26.64H105.76V31.28Z" fill="black"/>
</svg>
