<svg width="137" height="137" viewBox="0 0 137 137" fill="none" xmlns="http://www.w3.org/2000/svg">
<path d="M84.5526 116.271L90.9781 64.8367C91.5851 60.2957 89.3052 55.9106 85.4337 54.1728C79.6816 51.5906 70.321 51.5903 64.568 54.1728C60.6967 55.9106 58.4168 60.2957 59.0217 64.8216L65.4494 116.27H74.0821V90.8662C74.083 90.6245 74.1787 90.3928 74.3487 90.2209C74.5186 90.0491 74.7493 89.9509 74.991 89.9474C75.2358 89.9478 75.471 90.043 75.6471 90.2131C75.7336 90.2984 75.8023 90.4001 75.8491 90.5122C75.8959 90.6243 75.9199 90.7447 75.9197 90.8662V116.271H84.5526ZM74.9535 86.4692C73.7967 86.4855 72.6927 86.9554 71.879 87.7778C71.0654 88.6002 70.6073 89.7093 70.6035 90.8662V112.792H68.5201L62.4715 64.3757C62.0735 61.397 63.5543 58.4408 65.9928 57.3461C70.8758 55.1543 79.1266 55.1544 84.0091 57.3461C86.4476 58.4405 87.9284 61.3969 87.5284 64.3904L81.4817 112.792H79.398V90.8662C79.398 90.2848 79.2827 89.7091 79.0587 89.1726C78.8348 88.636 78.5066 88.1492 78.0933 87.7403C77.68 87.3314 77.1897 87.0085 76.6507 86.7903C76.1118 86.5721 75.5349 86.463 74.9535 86.4692Z" fill="black"/>
<path d="M103.112 126.066C103.361 126.066 103.599 125.967 103.774 125.791C103.95 125.616 104.049 125.377 104.049 125.129V119.046C104.049 118.798 103.95 118.559 103.774 118.384C103.599 118.208 103.361 118.109 103.112 118.109H36.4299V108.339H43.9861V104.86H36.4299V94.6443H48.2674V91.1658H36.4299V81.4636H43.9861V77.9851H36.4299V68.005H48.2674V64.5265H36.4299V54.6612H43.9861V51.1827H36.4299V41.6432H48.2674V38.1647H36.4299V28.3941H103.112C103.361 28.3941 103.599 28.2954 103.774 28.1198C103.95 27.9442 104.049 27.706 104.049 27.4576V19.3766C104.049 19.1282 103.95 18.89 103.774 18.7144C103.599 18.5387 103.361 18.44 103.112 18.44H62.8742C61.6471 18.4405 60.4426 18.1098 59.3877 17.4829C58.3328 16.856 57.4666 15.9561 56.8804 14.878C56.2314 13.6845 55.2724 12.6881 54.1045 11.9941C52.9366 11.3 51.6031 10.934 50.2445 10.9345H33.9669C33.7185 10.9345 33.4803 11.0332 33.3047 11.2088C33.129 11.3844 33.0304 11.6227 33.0304 11.871L32.9514 126.056L103.112 126.066Z" fill="black"/>
<path d="M75.3807 50.5699C77.4675 50.5676 79.4681 49.7376 80.9436 48.2621C82.4192 46.7866 83.2492 44.786 83.2516 42.6992V38.1035C83.2492 36.0168 82.4192 34.0162 80.9436 32.5407C79.468 31.0652 77.4675 30.2353 75.3807 30.2329H74.6208C72.5341 30.2353 70.5336 31.0653 69.0581 32.5408C67.5826 34.0163 66.7526 36.0168 66.7502 38.1035V42.6992C66.7526 44.7859 67.5826 46.7865 69.0581 48.262C70.5336 49.7375 72.5341 50.5675 74.6208 50.5699H75.3807ZM70.2288 42.6992V38.1035C70.2301 36.9391 70.6933 35.8227 71.5166 34.9993C72.34 34.1759 73.4564 33.7128 74.6208 33.7115H75.3808C76.5452 33.7127 77.6617 34.1759 78.4851 34.9992C79.3085 35.8226 79.7717 36.939 79.7731 38.1035V42.6992C79.7717 43.8637 79.3085 44.9802 78.4851 45.8036C77.6617 46.627 76.5452 47.0901 75.3807 47.0914H74.6208C73.4564 47.0901 72.34 46.6269 71.5166 45.8035C70.6933 44.9801 70.2301 43.8637 70.2288 42.6992Z" fill="black"/>
</svg>
