<svg width="62" height="62" viewBox="0 0 62 62" fill="none" xmlns="http://www.w3.org/2000/svg">
<path d="M59.4167 27.125V16.7917H51.6667V9.04167H41.3333V27.125H20.6667V9.04167H10.3333V16.7917H2.58333V27.125H0V34.875H2.58333V45.2083H10.3333V52.9583H20.6667V34.875H41.3333V52.9583H51.6667V45.2083H59.4167V34.875H62V27.125H59.4167ZM10.3333 42.625H5.16667V34.875V27.125V19.375H10.3333V42.625ZM18.0833 27.125V34.875V50.375H12.9167V45.2083V16.7917V11.625H18.0833V27.125ZM41.3333 32.2917H20.6667V29.7083H41.3333V32.2917ZM49.0833 16.7917V45.2083V50.375H43.9167V34.875V27.125V11.625H49.0833V16.7917ZM56.8333 27.125V34.875V42.625H51.6667V19.375H56.8333V27.125Z" fill="black"/>
</svg>
