<svg width="62" height="62" viewBox="0 0 62 62" fill="none" xmlns="http://www.w3.org/2000/svg">
<path d="M52.9583 28.4167H52.6845C51.9586 22.9361 49.5651 19.3169 44.9849 16.8317C41.3824 14.8774 38.3496 15.4948 35.4136 16.0903C34.3621 16.3207 33.2988 16.4932 32.2284 16.607C32.1845 16.1161 32.1134 15.6408 32.0282 15.1758C32.8055 15.3849 33.6063 15.4939 34.4113 15.5C36.6959 15.4952 38.9 14.6553 40.6084 13.1384C42.3167 11.6215 43.4116 9.53234 43.6867 7.26433C43.7225 6.98395 43.6653 6.69958 43.5239 6.45483C43.3825 6.21008 43.1647 6.01847 42.904 5.90937C41.7699 5.42314 40.5507 5.16669 39.3169 5.15488C38.083 5.14306 36.8591 5.37611 35.7159 5.84053C34.5728 6.30496 33.5331 6.99153 32.6571 7.8605C31.7811 8.72947 31.0861 9.76358 30.6125 10.903C29.642 8.87577 28.3111 7.04191 26.6845 5.49087C26.4276 5.26341 26.0908 5.14732 25.7483 5.16815C25.4058 5.18899 25.0856 5.34503 24.8581 5.60196C24.6306 5.85889 24.5146 6.19565 24.5354 6.53817C24.5562 6.88069 24.7123 7.20091 24.9692 7.42837C27.4874 9.88939 29.1221 13.1134 29.6192 16.5992C28.5859 16.4933 27.5693 16.2944 26.5838 16.0942C23.6504 15.4987 20.6163 14.8813 17.0125 16.8356C12.4349 19.3169 10.0414 22.9361 9.31549 28.4167H9.04166C8.01394 28.4167 7.02832 28.8249 6.30162 29.5516C5.57491 30.2783 5.16666 31.264 5.16666 32.2917V40.0417C5.16666 41.0694 5.57491 42.055 6.30162 42.7817C7.02832 43.5084 8.01394 43.9167 9.04166 43.9167H11.2646C12.4634 47.3046 14.3026 50.4303 16.6819 53.1237C17.6838 54.304 18.9339 55.2485 20.343 55.8897C21.7522 56.531 23.2855 56.8532 24.8336 56.8333C26.0804 56.807 27.3231 56.6805 28.5497 56.4549C29.3585 56.3013 30.1774 56.2076 31 56.1746C31.8238 56.207 32.6441 56.3003 33.4542 56.4536C36.6924 56.9702 41.1241 57.6768 45.3233 53.1224C47.7006 50.429 49.538 47.3037 50.7354 43.9167H52.9583C53.986 43.9167 54.9717 43.5084 55.6984 42.7817C56.4251 42.055 56.8333 41.0694 56.8333 40.0417V32.2917C56.8333 31.264 56.4251 30.2783 55.6984 29.5516C54.9717 28.8249 53.986 28.4167 52.9583 28.4167ZM35.8437 8.65417C37.378 7.76632 39.2 7.51764 40.9161 7.96183C40.4417 9.66946 39.316 11.1227 37.7811 12.0089C36.2463 12.8952 34.425 13.1437 32.7089 12.701C33.1815 10.9925 34.3076 9.53877 35.8437 8.65417ZM18.2474 19.1025C21.0244 17.5964 23.3624 18.0691 26.0723 18.622C27.6177 18.9804 29.1938 19.1906 30.7791 19.2497C30.8489 19.2796 30.9241 19.2949 31 19.2949C31.0759 19.2949 31.1511 19.2796 31.2209 19.2497C32.8062 19.1906 34.3823 18.9804 35.9277 18.622C38.6402 18.0717 40.9755 17.5964 43.7526 19.1025C45.5235 19.9752 47.038 21.2919 48.1483 22.9243C49.2587 24.5567 49.9271 26.449 50.0882 28.4167H11.9117C12.0729 26.449 12.7413 24.5567 13.8516 22.9243C14.962 21.2919 16.4765 19.9752 18.2474 19.1025ZM43.4194 51.3722C40.1605 54.9075 36.961 54.396 33.861 53.9025C32.9169 53.7245 31.9603 53.6204 31 53.5912C30.0405 53.6206 29.0848 53.7247 28.1415 53.9025C25.0415 54.396 21.8395 54.9075 18.5832 51.3735C16.6371 49.1767 15.0963 46.6519 14.0327 43.9167H47.9673C46.9043 46.6513 45.3644 49.1756 43.4194 51.3722ZM54.25 40.0417C54.25 40.3842 54.1139 40.7128 53.8717 40.955C53.6294 41.1972 53.3009 41.3333 52.9583 41.3333H9.04166C8.69909 41.3333 8.37055 41.1972 8.12831 40.955C7.88608 40.7128 7.74999 40.3842 7.74999 40.0417V32.2917C7.74999 31.9491 7.88608 31.6206 8.12831 31.3783C8.37055 31.1361 8.69909 31 9.04166 31H14.2083V34.875C14.2083 35.2176 14.3444 35.5461 14.5866 35.7883C14.8289 36.0306 15.1574 36.1667 15.5 36.1667C15.8426 36.1667 16.1711 36.0306 16.4133 35.7883C16.6556 35.5461 16.7917 35.2176 16.7917 34.875V31H21.9583V36.1667C21.9583 36.5092 22.0944 36.8378 22.3366 37.08C22.5789 37.3222 22.9074 37.4583 23.25 37.4583C23.5926 37.4583 23.9211 37.3222 24.1633 37.08C24.4056 36.8378 24.5417 36.5092 24.5417 36.1667V31H29.7083V34.875C29.7083 35.2176 29.8444 35.5461 30.0866 35.7883C30.3289 36.0306 30.6574 36.1667 31 36.1667C31.3426 36.1667 31.6711 36.0306 31.9133 35.7883C32.1556 35.5461 32.2917 35.2176 32.2917 34.875V31H37.4583V36.1667C37.4583 36.5092 37.5944 36.8378 37.8366 37.08C38.0789 37.3222 38.4074 37.4583 38.75 37.4583C39.0926 37.4583 39.4211 37.3222 39.6633 37.08C39.9056 36.8378 40.0417 36.5092 40.0417 36.1667V31H45.2083V34.875C45.2083 35.2176 45.3444 35.5461 45.5866 35.7883C45.8289 36.0306 46.1574 36.1667 46.5 36.1667C46.8426 36.1667 47.1711 36.0306 47.4133 35.7883C47.6556 35.5461 47.7917 35.2176 47.7917 34.875V31H52.9583C53.3009 31 53.6294 31.1361 53.8717 31.3783C54.1139 31.6206 54.25 31.9491 54.25 32.2917V40.0417Z" fill="black"/>
</svg>
