<svg width="62" height="62" viewBox="0 0 62 62" fill="none" xmlns="http://www.w3.org/2000/svg">
<g clip-path="url(#clip0_22_55)">
<path d="M36.4361 61.6417H5.26354C3.86812 61.6403 2.53026 61.0853 1.5435 60.0987C0.556731 59.1119 0.00163838 57.7742 0 56.3788V5.62026C0.00163838 4.22483 0.556731 2.88703 1.5435 1.90036C2.53026 0.913691 3.86812 0.358728 5.26354 0.357224H36.4361C37.8315 0.358764 39.1691 0.913771 40.1557 1.90046C41.1424 2.88715 41.6973 4.22494 41.6986 5.62026V20.2645C41.6986 20.5386 41.5898 20.8014 41.396 20.9953C41.2022 21.189 40.9393 21.2978 40.6653 21.2978C40.3912 21.2978 40.1285 21.189 39.9346 20.9953C39.7409 20.8014 39.632 20.5386 39.632 20.2645V5.62026C39.631 4.77291 39.294 3.96053 38.6949 3.36132C38.0958 2.7621 37.2835 2.42497 36.4361 2.42389H5.26354C4.41604 2.42478 3.60349 2.76181 3.00417 3.36104C2.40485 3.96027 2.06769 4.77276 2.06667 5.62026V56.3788C2.06769 57.2262 2.40485 58.0387 3.00417 58.6379C3.60349 59.2372 4.41604 59.5742 5.26354 59.5751H36.4361C37.2835 59.574 38.0958 59.2369 38.6949 58.6376C39.294 58.0385 39.631 57.2261 39.632 56.3788V41.7152C39.632 41.4412 39.7409 41.1784 39.9346 40.9846C40.1285 40.7908 40.3912 40.6819 40.6653 40.6819C40.9393 40.6819 41.2022 40.7908 41.396 40.9846C41.5898 41.1784 41.6986 41.4412 41.6986 41.7152V56.3788C41.6973 57.7741 41.1424 59.1118 40.1557 60.0986C39.1691 61.0852 37.8315 61.6402 36.4361 61.6417ZM55.0078 30.9965C55.0078 30.8608 54.9812 30.7264 54.9292 30.601C54.8773 30.4756 54.8012 30.3617 54.7053 30.2657C54.6093 30.1697 54.4954 30.0937 54.37 30.0417C54.2446 29.9898 54.1102 29.963 53.9745 29.9631H25.3429C25.0689 29.9631 24.806 30.072 24.6122 30.2658C24.4185 30.4596 24.3096 30.7224 24.3096 30.9965C24.3096 31.2705 24.4185 31.5334 24.6122 31.7272C24.806 31.9209 25.0689 32.0298 25.3429 32.0298H53.9745C54.1102 32.0298 54.2446 32.0032 54.37 31.9512C54.4954 31.8993 54.6093 31.8231 54.7053 31.7273C54.8012 31.6313 54.8773 31.5173 54.9292 31.3919C54.9812 31.2666 55.0078 31.1322 55.0078 30.9965ZM54.7051 40.4711L60.4581 34.7181C61.4438 33.7304 61.9974 32.392 61.9974 30.9965C61.9974 29.6011 61.4438 28.2626 60.4581 27.2749L54.7051 21.522C54.6092 21.426 54.4952 21.3499 54.3699 21.2979C54.2445 21.2461 54.1102 21.2193 53.9745 21.2193C53.8388 21.2193 53.7044 21.2461 53.5791 21.2979C53.4537 21.3499 53.3398 21.426 53.2438 21.522C53.1479 21.6178 53.0718 21.7318 53.0199 21.8572C52.9679 21.9825 52.9413 22.1168 52.9413 22.2525C52.9413 22.3882 52.9679 22.5226 53.0199 22.648C53.0718 22.7733 53.1479 22.8872 53.2438 22.9832L58.9968 28.7361C59.5954 29.3361 59.9316 30.149 59.9316 30.9965C59.9316 31.844 59.5954 32.6569 58.9968 33.2569L53.2439 39.0099C53.147 39.1056 53.0699 39.2195 53.0172 39.3452C52.9645 39.4707 52.9371 39.6056 52.9367 39.7418C52.9363 39.8781 52.9628 40.013 53.0148 40.139C53.0666 40.2649 53.143 40.3794 53.2393 40.4757C53.3357 40.572 53.4501 40.6483 53.5761 40.7002C53.702 40.7522 53.837 40.7787 53.9732 40.7782C54.1095 40.7778 54.2442 40.7504 54.3699 40.6977C54.4954 40.645 54.6094 40.568 54.7051 40.4711Z" fill="black"/>
</g>
<defs>
<clipPath id="clip0_22_55">
<rect width="62" height="62" fill="white"/>
</clipPath>
</defs>
</svg>
