<svg width="88" height="88" viewBox="0 0 88 88" fill="none" xmlns="http://www.w3.org/2000/svg">
<path d="M44 3.78125C36.0455 3.78125 28.2696 6.14004 21.6557 10.5593C15.0417 14.9786 9.8868 21.26 6.84274 28.6089C3.79867 35.9579 3.00222 44.0446 4.55406 51.8463C6.10591 59.6479 9.93637 66.8143 15.561 72.439C21.1857 78.0637 28.3521 81.8942 36.1537 83.446C43.9554 84.9978 52.0421 84.2013 59.3911 81.1573C66.74 78.1132 73.0214 72.9583 77.4407 66.3443C81.8599 59.7304 84.2188 51.9545 84.2188 44C84.2079 33.3367 79.967 23.1132 72.4269 15.5731C64.8868 8.033 54.6634 3.79217 44 3.78125ZM44 7.21875C50.9182 7.21383 57.6973 9.16161 63.5579 12.8381C69.4183 16.5146 74.1221 21.7704 77.1284 28.0013C80.1347 34.2321 81.3214 41.1851 80.5519 48.0604C79.7824 54.9356 77.0881 61.4541 72.7787 66.8663C70.8873 62.5196 68.0331 58.6596 64.4315 55.5772C60.83 52.495 56.5753 50.2712 51.9888 49.0737C54.6092 47.3542 56.6049 44.835 57.6792 41.8906C58.7535 38.9462 58.849 35.7338 57.9517 32.7308C57.0544 29.7276 55.212 27.0942 52.6985 25.222C50.1849 23.3497 47.1343 22.3384 44 22.3384C40.8658 22.3384 37.8151 23.3497 35.3016 25.222C32.788 27.0942 30.9456 29.7276 30.0483 32.7308C29.151 35.7338 29.2465 38.9462 30.3208 41.8906C31.3951 44.835 33.3908 47.3542 36.0112 49.0737C31.4247 50.2712 27.17 52.495 23.5685 55.5772C19.9671 58.6596 17.1128 62.5196 15.2212 66.8663C10.9119 61.4541 8.21765 54.9356 7.44818 48.0604C6.67873 41.1851 7.86537 34.2321 10.8716 28.0013C13.8779 21.7704 18.5817 16.5146 24.4423 12.8381C30.3027 9.16161 37.0818 7.21383 44 7.21875ZM44 48.0288C41.8 48.0288 39.6492 47.3763 37.8199 46.1541C35.9908 44.9317 34.5649 43.1945 33.723 41.1619C32.8811 39.1293 32.6608 36.8926 33.0901 34.7348C33.5192 32.577 34.5786 30.595 36.1343 29.0393C37.69 27.4836 39.6721 26.4242 41.8298 25.9949C43.9876 25.5658 46.2243 25.7861 48.2569 26.628C50.2895 27.4699 52.0268 28.8956 53.2491 30.7249C54.4713 32.5542 55.1237 34.7049 55.1237 36.905C55.1202 39.8541 53.947 42.6814 51.8617 44.7667C49.7764 46.852 46.9491 48.0252 44 48.0288ZM44 80.7812C39.117 80.7873 34.2819 79.8174 29.7789 77.9284C25.2759 76.0393 21.196 73.2693 17.7788 69.7812C19.753 64.4159 23.3256 59.7853 28.0145 56.5143C32.7034 53.2433 38.2829 51.4895 44 51.4895C49.7171 51.4895 55.2966 53.2433 59.9855 56.5143C64.6744 59.7853 68.247 64.4159 70.2213 69.7812C66.804 73.2693 62.7241 76.0393 58.2211 77.9284C53.7182 79.8174 48.8832 80.7873 44 80.7812Z" fill="black"/>
</svg>
