<svg width="62" height="62" viewBox="0 0 62 62" fill="none" xmlns="http://www.w3.org/2000/svg">
<g clip-path="url(#clip0_22_48)">
<path d="M35.1979 2.09819C35.1979 0.945736 36.3079 0 37.6955 0C39.083 0 40.193 0.9354 40.193 2.09819V11.2661C40.193 12.4186 39.083 13.3643 37.6955 13.3643C36.3079 13.3643 35.1979 12.4289 35.1979 11.2661V2.09819ZM7.25049 40.3359H12.9722C13.3354 40.3359 13.6331 40.6408 13.6331 41.0129V45.3437C13.6331 45.7158 13.3354 46.0207 12.9722 46.0207H7.25049C6.88721 46.0207 6.58952 45.7158 6.58952 45.3437V41.0129C6.58952 40.6357 6.88721 40.3359 7.25049 40.3359ZM29.1584 27.9948H34.88C35.0566 27.9948 35.2131 28.0672 35.3341 28.1809C33.0889 29.6176 31.1413 31.4884 29.5973 33.6848H29.1584C28.7951 33.6848 28.4974 33.3798 28.4974 33.0078V28.677C28.4974 28.2997 28.7951 27.9948 29.1584 27.9948ZM18.2044 27.9948H23.9261C24.2894 27.9948 24.5871 28.2997 24.5871 28.6718V33.0026C24.5871 33.3747 24.2894 33.6796 23.9261 33.6796H18.2044C17.8411 33.6796 17.5435 33.3747 17.5435 33.0026V28.6718C17.5435 28.2997 17.8411 27.9948 18.2044 27.9948ZM7.25049 27.9948H12.9722C13.3354 27.9948 13.6331 28.2997 13.6331 28.6718V33.0026C13.6331 33.3747 13.3354 33.6796 12.9722 33.6796H7.25049C6.88721 33.6796 6.58952 33.3747 6.58952 33.0026V28.6718C6.58952 28.2997 6.88721 27.9948 7.25049 27.9948ZM18.2044 40.3359H23.9261C24.2894 40.3359 24.5871 40.6408 24.5871 41.0129V45.3437C24.5871 45.7158 24.2894 46.0207 23.9261 46.0207H18.2044C17.8411 46.0207 17.5435 45.7158 17.5435 45.3437V41.0129C17.5435 40.6357 17.8411 40.3359 18.2044 40.3359ZM52.2166 30.77C58.125 33.2765 62 39.1835 62 45.7674C62 50.2481 60.224 54.3101 57.3581 57.2455C54.4922 60.1809 50.5314 62 46.1519 62C41.7773 62 37.8166 60.1809 34.9456 57.2455C32.0798 54.3049 30.3037 50.2481 30.3037 45.7674C30.3037 39.2351 34.2695 33.1421 40.1678 30.6615C43.8258 29.1318 48.5838 29.2248 52.2166 30.77ZM43.7148 45.3333C43.9116 45.1111 44.1538 44.9199 44.4162 44.7752V37.7158C44.4162 36.9974 44.9863 36.4134 45.6877 36.4134C46.389 36.4134 46.9642 36.9974 46.9642 37.7158V44.7752C47.4284 45.0336 47.8119 45.4212 48.0591 45.8966H52.9836C53.6899 45.8966 54.255 46.4806 54.255 47.199C54.255 47.9173 53.6849 48.5013 52.9836 48.5013H48.0591C47.605 49.3695 46.717 49.9587 45.6877 49.9587C44.8804 49.9587 44.1589 49.5917 43.6644 49.0181C42.7511 47.9483 42.7966 46.3514 43.7148 45.3333ZM55.5619 36.3876C48.9976 29.6641 37.9276 31.5659 34.0879 40.031C33.3008 41.7726 32.8568 43.7158 32.8568 45.7623C32.8568 49.5246 34.3452 52.9302 36.752 55.3954C39.1587 57.8605 42.4837 59.385 46.1569 59.385C49.8301 59.385 53.1551 57.8553 55.5619 55.3954C57.9686 52.9302 59.457 49.5246 59.457 45.7623C59.457 43.6279 58.9777 41.6072 58.125 39.8088C57.4741 38.4496 56.6063 37.4574 55.5619 36.3876ZM12.7804 2.09819C12.7804 0.945736 13.8905 0 15.278 0C16.6605 0 17.7756 0.9354 17.7756 2.09819V11.2661C17.7756 12.4186 16.6605 13.3643 15.278 13.3643C13.8955 13.3643 12.7804 12.4289 12.7804 11.2661V2.09819ZM2.74984 20.0465H50.2842V9.49354C50.2842 9.13178 50.1429 8.81654 49.9159 8.58398C49.6888 8.35142 49.3659 8.20672 49.0278 8.20672H44.4717C43.7098 8.20672 43.0892 7.57106 43.0892 6.7907C43.0892 6.01034 43.7098 5.37468 44.4717 5.37468H49.0278C50.1429 5.37468 51.147 5.83463 51.8786 6.58398C52.6102 7.33333 53.0592 8.36176 53.0592 9.50388V26.2636C52.151 25.9432 51.2176 25.6848 50.2539 25.4935V22.8734H50.2842H2.74984V50.2171C2.74984 50.5788 2.89111 50.8941 3.11816 51.1266C3.34521 51.3592 3.66813 51.5039 4.00619 51.5039H26.5952C26.8525 52.4858 27.1755 53.447 27.564 54.3669H4.03141C2.92139 54.3669 1.91227 53.907 1.18066 53.1576C0.449056 52.4031 0 51.3798 0 50.2377V9.50388C0 8.36693 0.449056 7.3385 1.18066 6.58398C1.91227 5.83463 2.91634 5.37468 4.03141 5.37468H8.89534C9.65723 5.37468 10.2778 6.01034 10.2778 6.7907C10.2778 7.57106 9.65723 8.20672 8.89534 8.20672H4.03141C3.67822 8.20672 3.37044 8.35142 3.14339 8.58398C2.91634 8.81654 2.77507 9.14729 2.77507 9.49354V20.0517H2.74984V20.0465ZM21.7616 8.20155C20.9997 8.20155 20.3791 7.56589 20.3791 6.78553C20.3791 6.00517 20.9997 5.36951 21.7616 5.36951H31.0404C31.8022 5.36951 32.4229 6.00517 32.4229 6.78553C32.4229 7.56589 31.8022 8.20155 31.0404 8.20155H21.7616Z" fill="black"/>
</g>
<defs>
<clipPath id="clip0_22_48">
<rect width="62" height="62" fill="white"/>
</clipPath>
</defs>
</svg>
