<svg width="42" height="41" viewBox="0 0 42 41" fill="none" xmlns="http://www.w3.org/2000/svg">
<g clip-path="url(#clip0_14_223)">
<path fill-rule="evenodd" clip-rule="evenodd" d="M20.9882 0.0961609C9.83633 0.0961609 0.795898 9.13659 0.795898 20.2885C0.795898 31.4403 9.83633 40.4808 20.9882 40.4808C32.1401 40.4808 41.1805 31.4403 41.1805 20.2885C41.1805 9.13659 32.1401 0.0961609 20.9882 0.0961609ZM23.0929 21.1754V32.1611H18.5475V21.1758H16.2767V17.3901H18.5475V15.1172C18.5475 12.0288 19.8298 10.1923 23.4729 10.1923H26.5058V13.9785H24.61C23.1919 13.9785 23.0981 14.5075 23.0981 15.4949L23.0929 17.3897H26.5273L26.1254 21.1754H23.0929Z" fill="black"/>
</g>
<defs>
<clipPath id="clip0_14_223">
<rect x="0.795898" y="0.0961609" width="40.3846" height="40.3846" rx="15" fill="white"/>
</clipPath>
</defs>
</svg>
