<svg width="41" height="41" viewBox="0 0 41 41" fill="none" xmlns="http://www.w3.org/2000/svg">
<g clip-path="url(#clip0_14_203)">
<path fill-rule="evenodd" clip-rule="evenodd" d="M0.588379 20.2885C0.588379 9.13659 9.62881 0.0961609 20.7807 0.0961609C31.9326 0.0961609 40.973 9.13659 40.973 20.2885C40.973 31.4403 31.9326 40.4808 20.7807 40.4808C9.62881 40.4808 0.588379 31.4403 0.588379 20.2885ZM20.7516 14.9218C22.3922 14.9218 23.499 15.6315 24.13 16.2246L26.5959 13.8135C25.0814 12.4037 23.1106 11.5385 20.7516 11.5385C17.3343 11.5385 14.383 13.5023 12.9462 16.3607C12.3539 17.5468 12.0142 18.8787 12.0142 20.2885C12.0142 21.6982 12.3539 23.0302 12.9462 24.2162L15.781 22.019L12.9558 24.2162C14.3927 27.0746 17.3343 29.0385 20.7516 29.0385C23.1106 29.0385 25.0911 28.2607 26.5376 26.919C28.188 25.3927 29.1395 23.1468 29.1395 20.4829C29.1395 19.7635 29.0812 19.2385 28.955 18.694H20.7516V21.9412H25.5669C25.4698 22.7482 24.9455 23.9635 23.7805 24.7802C23.0426 25.2954 22.0525 25.6552 20.7516 25.6552C18.441 25.6552 16.48 24.1287 15.781 22.019C15.5965 21.4746 15.4897 20.8912 15.4897 20.2885C15.4897 19.6857 15.5965 19.1023 15.7712 18.5579C16.48 16.4482 18.441 14.9218 20.7516 14.9218Z" fill="black"/>
</g>
<defs>
<clipPath id="clip0_14_203">
<rect x="0.588379" y="0.0961609" width="40.3846" height="40.3846" rx="15" fill="white"/>
</clipPath>
</defs>
</svg>
