<svg width="42" height="41" viewBox="0 0 42 41" fill="none" xmlns="http://www.w3.org/2000/svg">
<g clip-path="url(#clip0_14_198)">
<path fill-rule="evenodd" clip-rule="evenodd" d="M0.771606 20.2885C0.771606 9.13659 9.81204 0.0961609 20.9639 0.0961609C32.1158 0.0961609 41.1562 9.13659 41.1562 20.2885C41.1562 31.4403 32.1158 40.4808 20.9639 40.4808C9.81204 40.4808 0.771606 31.4403 0.771606 20.2885ZM24.2512 12.0109C25.0221 11.0157 25.6066 9.60893 25.3952 8.17309C24.1351 8.26065 22.6623 9.06685 21.8029 10.1177C21.0194 11.0698 20.3756 12.4862 20.627 13.8609C22.0046 13.904 23.4264 13.0784 24.2512 12.0109ZM30.3761 16.1044C26.408 18.2922 27.0505 23.9926 31.0601 25.5174C30.5088 26.7461 30.2435 27.2952 29.5334 28.3836C28.5427 29.9029 27.1458 31.7946 25.4132 31.8085C24.7009 31.8163 24.2336 31.6006 23.7295 31.3682C23.1453 31.0987 22.5119 30.8066 21.3911 30.8133C20.2769 30.8192 19.6334 31.1078 19.0413 31.3734C18.524 31.6054 18.046 31.8198 17.3276 31.8127C15.5964 31.7974 14.2728 30.0905 13.2821 28.5712C10.5104 24.3262 10.2189 19.343 11.928 16.6924C13.1439 14.8103 15.0617 13.7094 16.8634 13.7094C17.8233 13.7094 18.5969 13.9868 19.3341 14.2511C20.0049 14.4916 20.6455 14.7214 21.369 14.7214C22.0385 14.7214 22.589 14.5117 23.1894 14.2829C23.91 14.0085 24.7026 13.7066 25.8595 13.7066C27.465 13.7066 29.1658 14.5865 30.3761 16.1044Z" fill="black"/>
</g>
<defs>
<clipPath id="clip0_14_198">
<rect x="0.771606" y="0.0961609" width="40.3846" height="40.3846" rx="15" fill="white"/>
</clipPath>
</defs>
</svg>
