<svg width="675" height="119" viewBox="0 0 675 119" fill="none" xmlns="http://www.w3.org/2000/svg">
<g clip-path="url(#clip0_14_98)">
<g clip-path="url(#clip1_14_98)">
<g clip-path="url(#clip2_14_98)">
<g clip-path="url(#clip3_14_98)">
<g clip-path="url(#clip4_14_98)">
<g clip-path="url(#clip5_14_98)">
<g clip-path="url(#clip6_14_98)">
<g clip-path="url(#clip7_14_98)">
<path d="M182.567 85.3329H145.785V34.4601H181.413V40.2411H151.941V56.6592H174.872V62.4401H151.941V79.5519H182.567V85.3329ZM195.033 85.3329H188.569L208.346 34.4601H215.656L235.355 85.3329H228.814L214.348 47.4096L211.962 40.3182H211.808L209.577 47.1783L195.033 85.3329ZM225.429 71.2273H198.265V65.4463H225.429V71.2273ZM261.98 33.6893C266.443 33.6893 270.291 34.5989 273.523 36.418C276.754 38.2473 279.448 40.9348 281.602 44.4805L276.447 48.4887C274.549 45.1999 272.404 42.8721 270.014 41.5052C267.633 40.1486 264.75 39.4703 261.364 39.4703C258.645 39.4703 256.399 39.8557 254.624 40.6265C252.859 41.3973 251.566 42.4096 250.745 43.6635C249.924 44.9276 249.514 46.3561 249.514 47.9491C249.514 49.7477 250.078 51.3252 251.207 52.6818C252.336 54.0487 254.593 55.1176 257.979 55.8884L268.982 58.3549C273.856 59.434 277.252 61.063 279.171 63.2418C281.1 65.4308 282.064 68.1441 282.064 71.3814C282.064 74.2591 281.253 76.813 279.632 79.0432C278.022 81.2836 275.754 83.0205 272.83 84.2538C269.906 85.487 266.469 86.1037 262.519 86.1037C258.825 86.1037 255.578 85.6001 252.777 84.5929C249.986 83.596 247.59 82.2497 245.59 80.5539C243.589 78.8582 241.947 76.9569 240.665 74.85L246.051 70.4565C247.026 72.4092 248.283 74.1306 249.822 75.6208C251.361 77.111 253.218 78.2672 255.393 79.0894C257.578 79.9116 260.082 80.3227 262.903 80.3227C265.52 80.3227 267.787 79.999 269.706 79.3515C271.635 78.7143 273.112 77.7636 274.138 76.4995C275.164 75.2457 275.677 73.7195 275.677 71.921C275.677 70.2766 275.139 68.7967 274.061 67.4812C272.984 66.176 270.958 65.1893 267.982 64.5213L256.055 61.8235C252.925 61.1041 250.396 60.1123 248.468 58.8482C246.549 57.5944 245.164 56.1042 244.312 54.3776C243.471 52.6613 243.05 50.8011 243.05 48.797C243.05 46.0735 243.804 43.5658 245.313 41.274C246.831 38.9924 249.011 37.1579 251.853 35.7705C254.706 34.383 258.081 33.6893 261.98 33.6893ZM322.602 34.4601H329.912L311.751 65.4463V85.3329H305.595V65.4463L287.435 34.4601H294.745L304.595 51.8802L308.673 59.1257L312.752 51.8802L322.602 34.4601ZM400.783 34.4601V40.2411H371.388V56.6592H394.319V62.4401H371.388V85.3329H365.232V34.4601H400.783ZM412.172 34.4601H418.328V85.3329H412.172V34.4601ZM429.085 34.4601H470.639V40.2411H452.94V85.3329H446.784V40.2411H429.085V34.4601ZM515.424 34.4601H521.272V85.3329H513.654L492.416 51.2636L487.029 41.7056H486.952L487.26 49.4136V85.3329H481.412V34.4601H489.03L510.191 68.3753L515.655 78.1645H515.732L515.424 70.3794V34.4601ZM574.676 85.3329H537.893V34.4601H573.521V40.2411H544.049V56.6592H566.981V62.4401H544.049V79.5519H574.676V85.3329ZM603.301 33.6893C607.764 33.6893 611.612 34.5989 614.844 36.418C618.065 38.2473 620.759 40.9348 622.923 44.4805L617.752 48.4887C615.865 45.1999 613.725 42.8721 611.335 41.5052C608.944 40.1486 606.061 39.4703 602.686 39.4703C599.967 39.4703 597.72 39.8557 595.945 40.6265C594.18 41.3973 592.887 42.4096 592.066 43.6635C591.235 44.9276 590.82 46.3561 590.82 47.9491C590.82 49.7477 591.389 51.3252 592.528 52.6818C593.657 54.0487 595.909 55.1176 599.284 55.8884L610.304 58.3549C615.177 59.434 618.573 61.063 620.492 63.2418C622.421 65.4308 623.385 68.1441 623.385 71.3814C623.385 74.2591 622.575 76.813 620.954 79.0432C619.332 81.2836 617.065 83.0205 614.151 84.2538C611.227 85.487 607.79 86.1037 603.84 86.1037C600.146 86.1037 596.899 85.6001 594.098 84.5929C591.307 83.596 588.911 82.2497 586.911 80.5539C584.9 78.8582 583.253 76.9569 581.97 74.85L587.357 70.4565C588.342 72.4092 589.604 74.1306 591.143 75.6208C592.682 77.111 594.539 78.2672 596.714 79.0894C598.9 79.9116 601.403 80.3227 604.225 80.3227C606.831 80.3227 609.098 79.999 611.027 79.3515C612.946 78.7143 614.418 77.7636 615.444 76.4995C616.47 75.2457 616.983 73.7195 616.983 71.921C616.983 70.2766 616.449 68.7967 615.382 67.4812C614.305 66.176 612.274 65.1893 609.288 64.5213L597.361 61.8235C594.242 61.1041 591.717 60.1123 589.789 58.8482C587.87 57.5944 586.485 56.1042 585.633 54.3776C584.792 52.6613 584.371 50.8011 584.371 48.797C584.371 46.0735 585.125 43.5658 586.634 41.274C588.142 38.9924 590.322 37.1579 593.174 35.7705C596.027 34.383 599.402 33.6893 603.301 33.6893ZM652.611 33.6893C657.074 33.6893 660.922 34.5989 664.154 36.418C667.385 38.2473 670.079 40.9348 672.233 44.4805L667.078 48.4887C665.18 45.1999 663.04 42.8721 660.66 41.5052C658.269 40.1486 655.381 39.4703 651.995 39.4703C649.276 39.4703 647.035 39.8557 645.27 40.6265C643.495 41.3973 642.197 42.4096 641.376 43.6635C640.555 44.9276 640.145 46.3561 640.145 47.9491C640.145 49.7477 640.709 51.3252 641.838 52.6818C642.966 54.0487 645.224 55.1176 648.609 55.8884L659.613 58.3549C664.487 59.434 667.888 61.063 669.817 63.2418C671.736 65.4308 672.695 68.1441 672.695 71.3814C672.695 74.2591 671.89 76.813 670.279 79.0432C668.658 81.2836 666.385 83.0205 663.461 84.2538C660.537 85.487 657.1 86.1037 653.15 86.1037C649.456 86.1037 646.214 85.6001 643.423 84.5929C640.622 83.596 638.221 82.2497 636.221 80.5539C634.22 78.8582 632.578 76.9569 631.296 74.85L636.682 70.4565C637.657 72.4092 638.914 74.1306 640.453 75.6208C641.992 77.111 643.854 78.2672 646.039 79.0894C648.215 79.9116 650.713 80.3227 653.534 80.3227C656.151 80.3227 658.423 79.999 660.352 79.3515C662.271 78.7143 663.743 77.7636 664.769 76.4995C665.795 75.2457 666.308 73.7195 666.308 71.921C666.308 70.2766 665.769 68.7967 664.692 67.4812C663.615 66.176 661.588 65.1893 658.613 64.5213L646.686 61.8235C643.556 61.1041 641.032 60.1123 639.114 58.8482C637.185 57.5944 635.8 56.1042 634.958 54.3776C634.107 52.6613 633.681 50.8011 633.681 48.797C633.681 46.0735 634.44 43.5658 635.959 41.274C637.467 38.9924 639.647 37.1579 642.5 35.7705C645.342 34.383 648.712 33.6893 652.611 33.6893Z" fill="#8DBDFF"/>
</g>
</g>
</g>
</g>
<g clip-path="url(#clip8_14_98)">
<g clip-path="url(#clip9_14_98)">
<path d="M1.46393 59.8962C1.46393 26.8166 28.2354 0 61.2595 0C94.2835 0 121.055 26.8166 121.056 59.8962C121.056 92.9758 94.2848 119.792 61.2595 119.794C28.2354 119.794 1.46393 92.9772 1.46393 59.8962ZM61.2595 115.067C91.6775 115.067 116.336 90.3668 116.337 59.8962C116.337 29.427 91.6788 4.727 61.2595 4.727C30.8414 4.727 6.18298 29.427 6.18298 59.8962C6.18298 90.3654 30.8414 115.065 61.2595 115.067Z" fill="#8DBDFF"/>
<g clip-path="url(#clip10_14_98)">
<g clip-path="url(#clip11_14_98)">
<path d="M69.7553 47.8432L67.5552 50.0489L71.9572 54.4546L74.1574 52.2489L69.7553 47.8432Z" stroke="#8DBDFF" stroke-width="1.01599" stroke-miterlimit="10" stroke-linecap="round" stroke-linejoin="round"/>
<path d="M51.4232 66.2045L49.2241 68.4073L53.6233 72.8139L55.8224 70.6111L51.4232 66.2045Z" stroke="#8DBDFF" stroke-width="1.01599" stroke-miterlimit="10" stroke-linecap="round" stroke-linejoin="round"/>
<path d="M45.5578 85.298L36.7598 76.4865C36.7598 76.4865 36.1001 77.1446 35.2943 77.9545C34.4864 78.761 34.4864 80.084 35.2943 80.8905L41.1585 86.7673C41.967 87.5766 43.2851 87.5766 44.093 86.7673C44.8988 85.9602 45.5578 85.298 45.5578 85.298Z" stroke="#8DBDFF" stroke-width="1.01599" stroke-miterlimit="10" stroke-linecap="round" stroke-linejoin="round"/>
<path d="M52.891 83.8307L38.2267 69.141L35.2949 72.0777C34.4871 72.8876 34.4871 74.2079 35.2949 75.0171L47.0254 86.7667C47.8333 87.5759 49.1521 87.5759 49.9572 86.7667L52.891 83.8307Z" stroke="#8DBDFF" stroke-width="1.01599" stroke-miterlimit="10" stroke-linecap="round" stroke-linejoin="round"/>
<path d="M61.689 80.8912L41.1584 60.3281L36.7598 64.7342C35.9539 65.5427 35.9539 66.8644 36.7598 67.6723L54.3558 85.2973C55.1644 86.1044 56.4825 86.1044 57.2903 85.2973L61.689 80.8912Z" stroke="#8DBDFF" stroke-width="1.01599" stroke-miterlimit="10" stroke-linecap="round" stroke-linejoin="round"/>
<path d="M77.8223 35.3562L86.6176 44.169C86.6176 44.169 87.2794 43.5089 88.0852 42.7017C88.891 41.8925 88.891 40.5715 88.0852 39.763L82.2189 33.8889C81.4104 33.079 80.0923 33.079 79.2872 33.8889C78.4786 34.696 77.8223 35.3562 77.8223 35.3562Z" stroke="#8DBDFF" stroke-width="1.01599" stroke-miterlimit="10" stroke-linecap="round" stroke-linejoin="round"/>
<path d="M70.4891 36.8263L85.1535 51.5153L88.0852 48.5765C88.8938 47.7693 88.8938 46.4463 88.0852 45.6398L76.3554 33.8889C75.5475 33.079 74.2288 33.079 73.4209 33.8889L70.4891 36.8263Z" stroke="#8DBDFF" stroke-width="1.01599" stroke-miterlimit="10" stroke-linecap="round" stroke-linejoin="round"/>
<path d="M61.689 39.765L82.2196 60.3281L86.6183 55.9213C87.4268 55.1121 87.4268 53.7911 86.6183 52.9826L69.0215 35.3562C68.2157 34.549 66.8949 34.549 66.087 35.3562L61.689 39.765Z" stroke="#8DBDFF" stroke-width="1.01599" stroke-miterlimit="10" stroke-linecap="round" stroke-linejoin="round"/>
<path d="M38.9608 62.5308L37.4935 63.9998L58.0169 84.5694L59.4842 83.1005L38.9608 62.5308Z" stroke="#8DBDFF" stroke-width="1.01599" stroke-miterlimit="10" stroke-linecap="round" stroke-linejoin="round"/>
<path d="M65.3613 36.0929L63.894 37.5618L84.416 58.13L85.8833 56.6611L65.3613 36.0929Z" stroke="#8DBDFF" stroke-width="1.01599" stroke-miterlimit="10" stroke-linecap="round" stroke-linejoin="round"/>
<path d="M45.5578 47.1092C46.3684 47.9205 46.3684 49.236 45.5606 50.0459C44.7506 50.8578 43.4367 50.8578 42.626 50.0459L33.828 41.2323L45.5578 52.9846C48.124 55.5524 51.6634 57.1379 55.5711 57.1379C60.3641 63.7573 67.6657 72.1869 76.3554 80.8912L79.2872 83.8279C80.9084 85.4511 83.5329 85.4511 85.1535 83.8279C86.7719 82.2067 86.774 79.575 85.1535 77.9517L82.2196 75.0178C73.5299 66.3128 65.1139 59.0009 58.5049 54.2012C58.5049 50.5707 57.1223 46.9402 54.3586 44.1718L42.626 32.4188L51.4234 41.2323C52.234 42.0436 52.234 43.3598 51.4234 44.1718C50.6135 44.981 49.3022 44.981 48.4916 44.1718L39.6936 35.3562L48.4916 44.1725C49.3022 44.981 49.3016 46.2972 48.4916 47.1092C47.6817 47.9211 46.3684 47.9211 45.5578 47.1092ZM45.5578 47.1092L36.7598 38.2956" stroke="#8DBDFF" stroke-width="1.01599" stroke-miterlimit="10" stroke-linecap="round" stroke-linejoin="round"/>
<path d="M66.1796 60.2388L71.9561 54.4547L67.5574 50.0459L61.3043 56.3074C62.8576 57.5047 64.4905 58.823 66.1796 60.2388Z" stroke="#8DBDFF" stroke-width="1.01599" stroke-miterlimit="10" stroke-linecap="round" stroke-linejoin="round"/>
<path d="M57.673 59.9448L51.4241 66.2043L55.8234 70.611L61.5999 64.8249C60.1871 63.1322 58.8711 61.498 57.673 59.9448Z" stroke="#8DBDFF" stroke-width="1.01599" stroke-miterlimit="10" stroke-linecap="round" stroke-linejoin="round"/>
</g>
</g>
</g>
</g>
</g>
</g>
</g>
</g>
<defs>
<clipPath id="clip0_14_98">
<rect width="675" height="119" fill="white"/>
</clipPath>
<clipPath id="clip1_14_98">
<rect width="675" height="119" fill="white" transform="translate(-0.409058 0.396851)"/>
</clipPath>
<clipPath id="clip2_14_98">
<rect width="671.254" height="119.793" fill="white" transform="translate(1.46393)"/>
</clipPath>
<clipPath id="clip3_14_98">
<rect width="671.254" height="119.793" fill="white" transform="translate(1.46393)"/>
</clipPath>
<clipPath id="clip4_14_98">
<rect width="526.956" height="52.4144" fill="white" transform="translate(145.762 33.6893)"/>
</clipPath>
<clipPath id="clip5_14_98">
<rect width="526.956" height="52.4144" fill="white" transform="translate(145.762 33.6893)"/>
</clipPath>
<clipPath id="clip6_14_98">
<rect width="526.956" height="52.4144" fill="white" transform="translate(145.762 33.6893)"/>
</clipPath>
<clipPath id="clip7_14_98">
<rect width="526.956" height="52.4144" fill="white" transform="translate(145.762 33.6893)"/>
</clipPath>
<clipPath id="clip8_14_98">
<rect width="119.592" height="119.793" fill="white" transform="translate(1.46393)"/>
</clipPath>
<clipPath id="clip9_14_98">
<rect width="119.592" height="119.793" fill="white" transform="translate(1.46393)"/>
</clipPath>
<clipPath id="clip10_14_98">
<rect width="54.8636" height="54.9555" fill="white" transform="translate(33.828 32.4188)"/>
</clipPath>
<clipPath id="clip11_14_98">
<rect width="54.8636" height="54.9555" fill="white" transform="translate(33.828 32.4188)"/>
</clipPath>
</defs>
</svg>
