<svg width="136" height="131" viewBox="0 0 136 131" fill="none" xmlns="http://www.w3.org/2000/svg">
<g clip-path="url(#clip0_20_37)">
<g clip-path="url(#clip1_20_37)">
<path d="M0.625 65.4452C0.625 29.6197 30.7429 0.577148 67.895 0.577148C105.047 0.577148 135.165 29.6197 135.166 65.4452C135.166 101.271 105.049 130.313 67.895 130.315C30.7429 130.315 0.625 101.272 0.625 65.4452ZM67.895 125.195C102.115 125.195 129.856 98.4451 129.857 65.4452C129.857 32.4468 102.117 5.69652 67.895 5.69652C33.6747 5.69652 5.93393 32.4468 5.93393 65.4452C5.93393 98.4436 33.6747 125.194 67.895 125.195Z" fill="#8DBDFF"/>
<g clip-path="url(#clip2_20_37)">
<g clip-path="url(#clip3_20_37)">
<path d="M77.4528 52.3917L74.9776 54.7805L79.9299 59.5519L82.4051 57.1631L77.4528 52.3917Z" stroke="#8DBDFF" stroke-width="1.01599" stroke-miterlimit="10" stroke-linecap="round" stroke-linejoin="round"/>
<path d="M56.8291 72.2771L54.3551 74.6628L59.3042 79.4352L61.7783 77.0495L56.8291 72.2771Z" stroke="#8DBDFF" stroke-width="1.01599" stroke-miterlimit="10" stroke-linecap="round" stroke-linejoin="round"/>
<path d="M50.2306 92.9555L40.3328 83.4126C40.3328 83.4126 39.5906 84.1253 38.684 85.0025C37.7752 85.8759 37.7752 87.3088 38.684 88.1822L45.2813 94.5468C46.1909 95.4232 47.6738 95.4232 48.5826 94.5468C49.4891 93.6727 50.2306 92.9555 50.2306 92.9555Z" stroke="#8DBDFF" stroke-width="1.01599" stroke-miterlimit="10" stroke-linecap="round" stroke-linejoin="round"/>
<path d="M58.4804 91.3664L41.983 75.4573L38.6848 78.6378C37.776 79.5149 37.776 80.9449 38.6848 81.8213L51.8816 94.5461C52.7905 95.4225 54.2741 95.4225 55.1798 94.5461L58.4804 91.3664Z" stroke="#8DBDFF" stroke-width="1.01599" stroke-miterlimit="10" stroke-linecap="round" stroke-linejoin="round"/>
<path d="M68.3782 88.183L45.2813 65.913L40.3328 70.6848C39.4263 71.5604 39.4263 72.9918 40.3328 73.8667L60.1284 92.9548C61.038 93.8289 62.5209 93.8289 63.4297 92.9548L68.3782 88.183Z" stroke="#8DBDFF" stroke-width="1.01599" stroke-miterlimit="10" stroke-linecap="round" stroke-linejoin="round"/>
<path d="M86.5281 38.8682L96.4228 48.4125C96.4228 48.4125 97.1674 47.6976 98.0739 46.8234C98.9804 45.947 98.9804 44.5164 98.0739 43.6407L91.4743 37.279C90.5647 36.4019 89.0819 36.4019 88.1761 37.279C87.2665 38.1532 86.5281 38.8682 86.5281 38.8682Z" stroke="#8DBDFF" stroke-width="1.01599" stroke-miterlimit="10" stroke-linecap="round" stroke-linejoin="round"/>
<path d="M78.2783 40.4603L94.7757 56.3686L98.0739 53.1859C98.9835 52.3117 98.9835 50.8788 98.0739 50.0054L84.8779 37.279C83.969 36.4019 82.4854 36.4019 81.5766 37.279L78.2783 40.4603Z" stroke="#8DBDFF" stroke-width="1.01599" stroke-miterlimit="10" stroke-linecap="round" stroke-linejoin="round"/>
<path d="M68.3782 43.6429L91.4752 65.9129L96.4237 61.1404C97.3333 60.264 97.3333 58.8333 96.4237 57.9577L76.6273 38.8681C75.7208 37.994 74.2348 37.994 73.326 38.8681L68.3782 43.6429Z" stroke="#8DBDFF" stroke-width="1.01599" stroke-miterlimit="10" stroke-linecap="round" stroke-linejoin="round"/>
<path d="M42.809 68.2985L41.1582 69.8894L64.2471 92.1665L65.8979 90.5756L42.809 68.2985Z" stroke="#8DBDFF" stroke-width="1.01599" stroke-miterlimit="10" stroke-linecap="round" stroke-linejoin="round"/>
<path d="M72.5095 39.666L70.8588 41.2569L93.946 63.5324L95.5968 61.9415L72.5095 39.666Z" stroke="#8DBDFF" stroke-width="1.01599" stroke-miterlimit="10" stroke-linecap="round" stroke-linejoin="round"/>
<path d="M50.2306 51.5967C51.1425 52.4754 51.1425 53.9001 50.2337 54.7772C49.3225 55.6566 47.8443 55.6566 46.9323 54.7772L37.0345 45.2321L50.2306 57.9599C53.1176 60.7409 57.0994 62.458 61.4955 62.458C66.8876 69.6268 75.102 78.7561 84.8779 88.1829L88.1761 91.3634C90 93.1214 92.9526 93.1214 94.7757 91.3634C96.5965 89.6076 96.5988 86.7575 94.7757 84.9995L91.4751 81.822C81.6992 72.3944 72.2312 64.4756 64.7961 59.2775C64.7961 55.3456 63.2407 51.4137 60.1315 48.4155L46.9323 35.687L56.8294 45.2321C57.7413 46.1107 57.7413 47.5362 56.8294 48.4155C55.9182 49.2919 54.4431 49.2919 53.5311 48.4155L43.6333 38.8682L53.5311 48.4163C54.4431 49.2919 54.4423 50.7174 53.5311 51.5967C52.62 52.4761 51.1425 52.4761 50.2306 51.5967ZM50.2306 51.5967L40.3328 42.0516" stroke="#8DBDFF" stroke-width="1.01599" stroke-miterlimit="10" stroke-linecap="round" stroke-linejoin="round"/>
<path d="M73.4301 65.8162L79.9286 59.552L74.9801 54.7772L67.9454 61.5585C69.6929 62.8552 71.5298 64.2829 73.4301 65.8162Z" stroke="#8DBDFF" stroke-width="1.01599" stroke-miterlimit="10" stroke-linecap="round" stroke-linejoin="round"/>
<path d="M63.8602 65.4978L56.8301 72.2769L61.7794 77.0494L68.2779 70.783C66.6886 68.9498 65.208 67.1799 63.8602 65.4978Z" stroke="#8DBDFF" stroke-width="1.01599" stroke-miterlimit="10" stroke-linecap="round" stroke-linejoin="round"/>
</g>
</g>
</g>
</g>
<defs>
<clipPath id="clip0_20_37">
<rect width="134.541" height="129.737" fill="white" transform="translate(0.625 0.577148)"/>
</clipPath>
<clipPath id="clip1_20_37">
<rect width="134.541" height="129.737" fill="white" transform="translate(0.625 0.577148)"/>
</clipPath>
<clipPath id="clip2_20_37">
<rect width="61.7216" height="59.5172" fill="white" transform="translate(37.0345 35.687)"/>
</clipPath>
<clipPath id="clip3_20_37">
<rect width="61.7216" height="59.5172" fill="white" transform="translate(37.0345 35.687)"/>
</clipPath>
</defs>
</svg>
