<svg width="47" height="47" viewBox="0 0 47 47" fill="none" xmlns="http://www.w3.org/2000/svg">
<g clip-path="url(#clip0_48_136)">
<path fill-rule="evenodd" clip-rule="evenodd" d="M41.7961 45.4581H5.20387C2.3679 45.4581 0 43.1453 0 40.2542C0 37.3632 2.31283 35.0504 5.20387 35.0504H41.7961C44.6321 35.0504 47 37.3632 47 40.2542C47 43.1453 44.6321 45.4581 41.7961 45.4581ZM5.20387 36.427C3.05624 36.427 1.29408 38.1892 1.29408 40.3093C1.29408 42.4294 3.05624 44.2191 5.20387 44.2191H41.7961C43.9162 44.2191 45.6784 42.4294 45.6784 40.3093C45.6784 38.1892 43.9162 36.427 41.7961 36.427H5.20387Z" fill="black"/>
<path fill-rule="evenodd" clip-rule="evenodd" d="M39.9789 36.4271H35.959C35.601 36.4271 35.2982 36.1242 35.2982 35.7662V13.9871C35.2982 13.6292 35.601 13.3263 35.959 13.3263H36.1242L39.6209 11.3163C39.7861 11.2062 40.089 11.2062 40.2542 11.3163C40.447 11.454 40.5571 11.6743 40.5571 11.867V35.7662C40.6122 36.1242 40.3093 36.4271 39.9789 36.4271ZM36.5922 35.133H39.3181V12.9959L36.6473 14.5102C36.6473 14.5102 36.6473 14.5102 36.5922 14.5102V35.133Z" fill="black"/>
<path fill-rule="evenodd" clip-rule="evenodd" d="M36.3169 14.5653H29.6813C29.461 14.5653 29.2683 14.4552 29.1582 14.29L27.5061 11.454C26.7903 10.2701 27.2033 8.6731 28.4423 8.01229L39.0703 1.87228C40.2542 1.18394 41.8512 1.59694 42.512 2.83596L44.8524 6.91094C45.2103 7.48915 45.2654 8.14996 45.1002 8.78323C44.935 9.44404 44.522 9.96718 43.9162 10.3251L36.6473 14.5102C36.5372 14.5653 36.4271 14.5653 36.3169 14.5653ZM30.0392 13.3263H36.1242L43.2829 9.19624C43.8611 8.8383 44.0264 8.09489 43.751 7.48915L41.3831 3.41416C41.0252 2.83596 40.2542 2.64322 39.676 2.94609L29.048 9.0861C28.4423 9.44404 28.2771 10.215 28.58 10.7932L30.0392 13.3263Z" fill="black"/>
<path fill-rule="evenodd" clip-rule="evenodd" d="M35.959 20.072H20.2373C19.9069 20.072 19.604 19.7692 19.604 19.4112V16.9883C19.604 16.6303 19.9069 16.355 20.2373 16.355H35.959C36.317 16.355 36.5923 16.6303 36.5923 16.9883V19.4112C36.5923 19.7692 36.317 20.072 35.959 20.072ZM20.843 18.7779H35.2982V17.594H20.843V18.7779Z" fill="black"/>
<path fill-rule="evenodd" clip-rule="evenodd" d="M8.3152 43.2554C6.66318 43.2554 5.31403 41.9062 5.31403 40.2542C5.31403 38.6022 6.66318 37.2531 8.3152 37.2531C9.96722 37.2531 11.3439 38.6022 11.3439 40.2542C11.3439 41.9062 9.96722 43.2554 8.3152 43.2554ZM8.3152 38.5471C7.37905 38.5471 6.60811 39.3181 6.60811 40.2542C6.60811 41.1904 7.37905 41.9613 8.3152 41.9613C9.27888 41.9613 10.0223 41.1904 10.0223 40.2542C10.0223 39.3181 9.27888 38.5471 8.3152 38.5471Z" fill="black"/>
<path fill-rule="evenodd" clip-rule="evenodd" d="M15.942 43.2554C14.29 43.2554 12.9409 41.9062 12.9409 40.2542C12.9409 38.6022 14.29 37.2531 15.942 37.2531C17.594 37.2531 18.9432 38.6022 18.9432 40.2542C18.9432 41.9062 17.594 43.2554 15.942 43.2554ZM15.942 38.5471C15.0059 38.5471 14.2349 39.3181 14.2349 40.2542C14.2349 41.1904 15.0059 41.9613 15.942 41.9613C16.8782 41.9613 17.6491 41.1904 17.6491 40.2542C17.6491 39.3181 16.8782 38.5471 15.942 38.5471Z" fill="black"/>
<path fill-rule="evenodd" clip-rule="evenodd" d="M23.4863 43.2554C21.8343 43.2554 20.4851 41.9062 20.4851 40.2542C20.4851 38.6022 21.8343 37.2531 23.4863 37.2531C25.1383 37.2531 26.515 38.6022 26.515 40.2542C26.515 41.9062 25.1383 43.2554 23.4863 43.2554ZM23.4863 38.5471C22.5501 38.5471 21.7792 39.3181 21.7792 40.2542C21.7792 41.1904 22.5501 41.9613 23.4863 41.9613C24.45 41.9613 25.2209 41.1904 25.2209 40.2542C25.2209 39.3181 24.45 38.5471 23.4863 38.5471Z" fill="black"/>
<path fill-rule="evenodd" clip-rule="evenodd" d="M31.058 43.2554C29.406 43.2554 28.0293 41.9062 28.0293 40.2542C28.0293 38.6022 29.406 37.2531 31.058 37.2531C32.71 37.2531 34.0592 38.6022 34.0592 40.2542C34.0592 41.9062 32.71 43.2554 31.058 43.2554ZM31.058 38.5471C30.0943 38.5471 29.3509 39.3181 29.3509 40.2542C29.3509 41.1904 30.0943 41.9613 31.058 41.9613C31.9941 41.9613 32.7651 41.1904 32.7651 40.2542C32.7651 39.3181 31.9941 38.5471 31.058 38.5471Z" fill="black"/>
<path fill-rule="evenodd" clip-rule="evenodd" d="M38.6573 43.2554C37.0053 43.2554 35.6561 41.9062 35.6561 40.2542C35.6561 38.6022 37.0053 37.2531 38.6573 37.2531C40.3093 37.2531 41.686 38.6022 41.686 40.2542C41.686 41.9062 40.3093 43.2554 38.6573 43.2554ZM38.6573 38.5471C37.7212 38.5471 36.9502 39.3181 36.9502 40.2542C36.9502 41.1904 37.7212 41.9613 38.6573 41.9613C39.621 41.9613 40.3919 41.1904 40.3919 40.2542C40.3919 39.3181 39.621 38.5471 38.6573 38.5471Z" fill="black"/>
<path fill-rule="evenodd" clip-rule="evenodd" d="M35.3533 9.33392C35.133 9.33392 34.9403 9.19625 34.8301 9.03105L33.123 6.08494C32.9303 5.78207 33.068 5.36907 33.3433 5.20387C33.6462 5.01113 34.0592 5.12126 34.2519 5.42413L35.6011 7.79203L42.3744 3.88225C42.6772 3.71705 43.0902 3.82718 43.283 4.13005C43.4482 4.43292 43.338 4.84593 43.0352 5.01113L35.7112 9.25132C35.6011 9.25132 35.4909 9.33392 35.3533 9.33392Z" fill="black"/>
</g>
<defs>
<clipPath id="clip0_48_136">
<rect width="47" height="47" fill="white"/>
</clipPath>
</defs>
</svg>
