<svg width="47" height="47" viewBox="0 0 47 47" fill="none" xmlns="http://www.w3.org/2000/svg">
<path fill-rule="evenodd" clip-rule="evenodd" d="M24.3262 10.373C21.4805 10.373 19.1855 8.07812 19.1855 5.23242C19.1855 2.29492 21.4805 0 24.3262 0C27.1719 0 29.4668 2.29492 29.4668 5.23242C29.4668 8.07812 27.1719 10.373 24.3262 10.373ZM24.3262 1.28516C22.2148 1.28516 20.4707 3.0293 20.4707 5.23242C20.4707 7.34375 22.2148 9.08789 24.3262 9.08789C26.5293 9.08789 28.2734 7.34375 28.2734 5.23242C28.2734 3.0293 26.5293 1.28516 24.3262 1.28516Z" fill="black"/>
<path fill-rule="evenodd" clip-rule="evenodd" d="M27.1718 47C25.4277 47 23.9589 45.5312 23.9589 43.6953C23.9589 43.5117 23.9589 43.1445 23.9589 42.5938C23.9589 40.8496 24.0507 35.8926 23.8671 34.9746L17.7167 29.375C16.0644 28.1816 16.6152 24.6934 16.707 24.3262C16.9824 22.8574 17.3496 20.8379 17.6249 19.4609C17.4414 19.5527 17.3496 19.7363 17.3496 19.8281L15.4218 25.7949C15.0546 27.0801 13.8613 27.9062 12.5761 27.9062C12.2089 27.9062 11.9335 27.8145 11.6582 27.7227C10.0976 27.2637 9.17963 25.5195 9.73042 23.959L12.1171 16.3398C12.3925 15.5137 14.871 13.9531 16.1562 13.2188C17.6249 12.3008 20.4706 10.9238 22.7656 10.9238C24.7851 10.9238 26.0703 11.9336 26.4374 13.7695C26.621 14.5957 26.0703 19.002 25.7949 20.8379C25.6113 22.3984 25.3359 23.959 25.1523 25.0605C24.9687 26.0703 24.8769 26.6211 24.7851 26.9883L29.2831 31.0273C29.3749 31.1191 30.5683 32.2207 30.4765 33.7812V43.6953C30.4765 45.5312 29.0078 47 27.1718 47ZM18.5429 17.0742C18.7265 17.0742 18.9101 17.166 19.0019 17.3496C19.1855 17.5332 19.1855 17.8086 19.0937 18.1758C19.0937 18.3594 19.0937 18.6348 19.0019 18.9102C18.9101 19.4609 18.7265 20.2871 18.6347 21.2051C18.2675 22.8574 17.9921 24.5098 17.9921 24.5098C17.8085 25.5195 17.6249 27.8145 18.4511 28.3652C18.5429 28.3652 18.5429 28.3652 18.5429 28.3652L24.8769 34.1484C25.1523 34.4238 25.4277 34.9746 25.2441 42.5938C25.2441 43.1445 25.2441 43.5117 25.2441 43.6953C25.2441 44.2461 25.4277 44.7051 25.7949 45.0723C26.1621 45.5312 26.7128 45.7148 27.1718 45.7148C28.2734 45.7148 29.1914 44.7969 29.1914 43.6953V33.7812C29.1914 33.6895 29.1914 33.6895 29.1914 33.6895C29.2831 32.7715 28.3652 32.0371 28.3652 31.9453L23.5917 27.6309C23.4081 27.3555 23.3164 27.0801 23.4999 26.8047C23.6835 26.3457 24.1425 23.959 24.6015 20.4707C25.0605 16.7988 25.2441 14.4121 25.2441 14.0449C24.8769 12.7598 24.1425 12.209 22.7656 12.209C19.2773 12.209 13.8613 16.0645 13.4023 16.7988L10.9238 24.3262C10.6484 25.2441 11.1074 26.2539 12.0253 26.5293C12.2089 26.6211 12.3925 26.6211 12.5761 26.6211C13.3105 26.6211 13.9531 26.0703 14.2285 25.4277L16.1562 19.4609C16.4316 18.4512 18.0839 17.2578 18.2675 17.166C18.3593 17.166 18.4511 17.0742 18.5429 17.0742Z" fill="black"/>
<path fill-rule="evenodd" clip-rule="evenodd" d="M13.6776 46.9082C13.3104 46.9082 13.035 46.9082 12.6679 46.7246C11.8417 46.4492 11.1991 45.8066 10.8319 44.9805C10.4647 44.2461 10.4647 43.2363 10.7401 42.4102L15.33 29.5586C15.33 29.375 15.5136 29.1914 15.789 29.1914C15.9725 29.0996 16.1561 29.1914 16.3397 29.375L19.2772 32.4043L20.3788 33.5977C20.5624 33.7813 20.6542 33.9648 20.5624 34.2402L16.8905 44.6133C16.6151 45.4395 15.9725 46.1738 15.2382 46.541C14.6874 46.8164 14.2284 46.9082 13.6776 46.9082ZM16.1561 31.0273L11.9335 42.8691C11.7499 43.4199 11.7499 43.9707 12.0253 44.5215C12.2089 44.9805 12.5761 45.3477 13.1268 45.5313C13.5858 45.7148 14.1366 45.7148 14.5956 45.4395C15.1464 45.1641 15.5136 44.7051 15.6972 44.1543L19.1854 34.1484L18.3593 33.3223L16.1561 31.0273Z" fill="black"/>
<path fill-rule="evenodd" clip-rule="evenodd" d="M34.6992 27.998C34.2402 27.998 33.7812 27.9062 33.5059 27.6309L26.8965 22.8574C26.6211 22.6738 26.5293 22.3984 26.6211 22.2148L27.4473 17.2578C27.4473 17.0742 27.6309 16.8906 27.8145 16.7988C27.998 16.707 28.2734 16.707 28.457 16.8906L36.5352 23.041C37.5449 23.8672 37.7285 25.4277 36.9023 26.7129C36.3516 27.5391 35.5254 27.998 34.6992 27.998ZM27.9062 22.0312L34.2402 26.6211C34.332 26.7129 34.5156 26.7129 34.6992 26.7129C35.0664 26.7129 35.5254 26.4375 35.8008 25.9785C36.2598 25.3359 36.2598 24.418 35.8008 24.0508L28.5488 18.543L27.9062 22.0312Z" fill="black"/>
<path fill-rule="evenodd" clip-rule="evenodd" d="M40.207 47H6.79297C6.51758 47 6.15039 46.7246 6.15039 46.3574C6.15039 45.9902 6.51758 45.7148 6.79297 45.7148H40.207C40.4824 45.7148 40.8496 45.9902 40.8496 46.3574C40.8496 46.7246 40.4824 47 40.207 47Z" fill="black"/>
</svg>
