<svg width="116" height="116" viewBox="0 0 116 116" fill="none" xmlns="http://www.w3.org/2000/svg">
<path d="M104.6 12.6875L102.08 10.1319L101.971 10.0412L101.718 9.84187L101.5 9.60625L101.174 9.425L100.902 9.29813L100.485 9.17125H100.25L99.6877 9.0625H99.2527L87.4171 9.84187C86.5429 9.90591 85.7214 10.2846 85.1049 10.9077C84.4884 11.5309 84.1186 12.3564 84.064 13.2313L83.5021 21.8769L74.8565 22.4569C73.9819 22.5162 73.1585 22.8905 72.5387 23.5103C71.9188 24.1301 71.5446 24.9536 71.4852 25.8281L70.9052 34.4375L62.2415 34.9994C61.3669 35.0587 60.5435 35.433 59.9237 36.0528C59.3038 36.6726 58.9296 37.4961 58.8702 38.3706L58.2721 47.125L49.6084 47.6869C48.9599 47.7262 48.3339 47.939 47.7959 48.3031C41.4572 46.6169 34.7394 47.0678 28.6831 49.5861C22.6267 52.1045 17.5697 56.5496 14.2955 62.233C11.0213 67.9164 9.71259 74.5209 10.5721 81.0235C11.4315 87.526 14.4112 93.5637 19.0496 98.2012L19.6659 98.7812L19.8471 98.9444C25.4845 104.23 32.9609 107.11 40.6876 106.971C48.4144 106.832 55.7826 103.686 61.2265 98.2012C65.4198 93.9758 68.2619 88.5989 69.3915 82.7541C70.5211 76.9092 69.8871 70.8605 67.5702 65.3769L104.364 28.5831C105.027 27.9243 105.41 27.0346 105.433 26.1L105.669 15.225C105.66 14.2714 105.276 13.3598 104.6 12.6875ZM32.4077 93.0719C31.594 93.8855 30.5573 94.4395 29.4288 94.6639C28.3002 94.8883 27.1304 94.773 26.0673 94.3326C25.0043 93.8923 24.0956 93.1465 23.4564 92.1898C22.8171 91.233 22.4759 90.1082 22.4759 88.9575C22.4759 87.8068 22.8171 86.682 23.4564 85.7252C24.0956 84.7685 25.0043 84.0227 26.0673 83.5824C27.1304 83.142 28.3002 83.0267 29.4288 83.2511C30.5573 83.4755 31.594 84.0295 32.4077 84.8431C32.9481 85.3834 33.3768 86.0248 33.6692 86.7308C33.9616 87.4367 34.1122 88.1934 34.1122 88.9575C34.1122 89.7216 33.9616 90.4783 33.6692 91.1842C33.3768 91.8902 32.9481 92.5316 32.4077 93.0719ZM56.0971 93.0719C53.5312 95.6552 50.3757 97.5758 46.9024 98.6683C43.4291 99.7608 39.7423 99.9924 36.1596 99.3431C37.622 98.277 38.8466 96.9184 39.7557 95.3535C40.6649 93.7887 41.2386 92.0519 41.4404 90.2534C41.6422 88.455 41.4678 86.6342 40.9282 84.9068C40.3886 83.1794 39.4956 81.5831 38.3059 80.2193C37.1162 78.8555 35.6559 77.7541 34.0177 76.985C32.3795 76.2159 30.5993 75.796 28.7901 75.7518C26.9809 75.7077 25.1823 76.0404 23.5085 76.7287C21.8348 77.417 20.3225 78.4459 19.0677 79.75C18.6658 80.1543 18.2904 80.5841 17.944 81.0369C17.252 77.1101 17.6129 73.0702 18.9898 69.3282C20.3667 65.5862 22.7105 62.2759 25.7827 59.7342C28.8548 57.1926 32.5455 55.5103 36.4792 54.8586C40.4128 54.2069 44.4488 54.6092 48.1765 56.0244C48.8814 56.2813 49.5712 56.5778 50.2427 56.9125C52.441 57.9949 54.4489 59.4273 56.1877 61.1538C57.7308 62.6951 59.0487 64.4463 60.1027 66.3556C62.4021 70.6428 63.2627 75.5555 62.5578 80.369C61.8529 85.1825 59.6198 89.6421 56.1877 93.09L56.0971 93.0719ZM98.2196 24.4869L63.7821 58.9244C62.9985 57.905 62.151 56.9364 61.2446 56.0244C60.6465 55.4263 60.0121 54.8462 59.4321 54.3025L61.9877 54.1394C62.8458 54.0547 63.6455 53.667 64.2435 53.0458C64.8414 52.4246 65.1984 51.6106 65.2502 50.75L65.8302 42.0681L74.494 41.5062C75.3931 41.4623 76.2438 41.0854 76.8803 40.4488C77.5169 39.8123 77.8938 38.9616 77.9377 38.0625L78.4996 29.4169L87.1452 28.8369C88.0198 28.7775 88.8432 28.4033 89.4631 27.7835C90.0829 27.1636 90.4571 26.3402 90.5165 25.4656L91.0784 16.82L98.1109 16.3669L98.3646 16.6206L98.2196 24.4869Z" fill="black"/>
</svg>
