<svg width="47" height="47" viewBox="0 0 47 47" fill="none" xmlns="http://www.w3.org/2000/svg">
<path d="M23.5 1.95833C19.2395 1.95833 15.0746 3.22173 11.5321 5.58876C7.98958 7.95579 5.22853 11.3201 3.5981 15.2564C1.96766 19.1926 1.54106 23.5239 2.37225 27.7026C3.20344 31.8812 5.25509 35.7196 8.26774 38.7323C11.2804 41.7449 15.1188 43.7966 19.2974 44.6277C23.4761 45.4589 27.8074 45.0323 31.7436 43.4019C35.6799 41.7715 39.0442 39.0104 41.4112 35.4679C43.7783 31.9254 45.0417 27.7605 45.0417 23.5C45.0417 17.7868 42.7721 12.3076 38.7323 8.26774C34.6924 4.2279 29.2132 1.95833 23.5 1.95833ZM39.4134 12.1162L37.6196 17.6446C37.6014 17.7273 37.588 17.811 37.5794 17.8952L31.9208 19.7341C31.8618 19.667 31.7987 19.6035 31.7319 19.5442L24.7044 14.4388C24.6319 14.3953 24.5567 14.3567 24.4792 14.3232V8.37971C24.5568 8.3465 24.6321 8.30789 24.7044 8.26417L29.4269 4.83708C33.4534 6.12335 36.9564 8.67664 39.4134 12.1162ZM17.5731 4.83512L22.2956 8.26221C22.3679 8.30593 22.4432 8.34454 22.5208 8.37775V14.3213C22.4426 14.3547 22.3667 14.3933 22.2937 14.4368L15.2662 19.5442C15.1993 19.6035 15.1362 19.667 15.0772 19.7341L9.42056 17.8952C9.41204 17.811 9.39864 17.7273 9.38042 17.6446L7.58658 12.1162C10.0433 8.67591 13.5463 6.12191 17.5731 4.83512ZM3.92352 23.3629L8.63625 19.9358C8.69907 19.8806 8.75796 19.821 8.8125 19.7576L14.4819 21.6004C14.4894 21.6804 14.5018 21.7599 14.5191 21.8384L17.204 30.0996C17.2383 30.18 17.2782 30.2578 17.3234 30.3326L13.8229 35.1521C13.74 35.1333 13.6559 35.1199 13.5712 35.1119H7.75794C5.26343 31.7544 3.91653 27.6828 3.91667 23.5C3.91667 23.454 3.92352 23.4089 3.92352 23.3629ZM17.3175 42.0719L15.5198 36.5327C15.4863 36.4556 15.4481 36.3808 15.4052 36.3085L18.9136 31.4782C18.9937 31.4962 19.0748 31.5093 19.1564 31.5174H27.8436C27.9252 31.5093 28.0063 31.4962 28.0864 31.4782L31.5948 36.3085C31.5516 36.3805 31.5133 36.4555 31.4802 36.5327L29.6825 42.0719C25.6711 43.4205 21.3289 43.4205 17.3175 42.0719ZM39.2421 35.1129H33.4288C33.3441 35.1208 33.26 35.1342 33.1771 35.1531L29.6746 30.3336C29.7197 30.2584 29.7596 30.1802 29.7941 30.0996L32.479 21.8354C32.4962 21.7569 32.5086 21.6775 32.5162 21.5975L38.1875 19.7586C38.2429 19.8215 38.3025 19.8807 38.3657 19.9358L43.0784 23.3561C43.0784 23.405 43.0853 23.454 43.0853 23.5C43.0851 27.6833 41.7375 31.7554 39.2421 35.1129Z" fill="black"/>
</svg>
