<svg width="47" height="47" viewBox="0 0 47 47" fill="none" xmlns="http://www.w3.org/2000/svg">
<path d="M21.2034 9.48211C23.6707 9.48211 25.6786 7.47429 25.6786 5.00696C25.6786 2.53964 23.6707 0.531815 21.2034 0.531815C18.7361 0.531815 16.7283 2.53917 16.7283 5.00696C16.7283 7.47475 18.7361 9.48211 21.2034 9.48211ZM21.2034 1.93132C22.8996 1.93132 24.2791 3.31123 24.2791 5.00696C24.2791 6.70316 22.8996 8.0826 21.2034 8.0826C19.5072 8.0826 18.1278 6.70269 18.1278 5.00696C18.1278 3.31123 19.5072 1.93132 21.2034 1.93132Z" fill="black"/>
<path d="M45.0337 28.5196C45.0337 26.4786 44.1138 24.9979 41.8983 23.8112C43.7448 22.7965 45.0337 21.4497 45.0337 19.699C45.0337 18.758 44.6722 17.9272 43.9584 17.2293C41.7687 15.0862 36.6432 14.7923 34.7478 14.7587V12.7863C34.7478 12.3996 34.4343 12.0866 34.0481 12.0866H22.4541C22.4163 12.0801 22.3776 12.0768 22.3379 12.0768H19.4732L8.32751 6.1219C7.98697 5.94043 7.56292 6.06825 7.38052 6.40926L6.12236 8.76416C6.03466 8.92791 6.016 9.11964 6.07011 9.29737C6.12423 9.47511 6.24645 9.62393 6.41019 9.71163L15.4972 14.5665V22.3417L3.88689 16.1386C3.54681 15.9571 3.12229 16.085 2.93989 16.426L1.20311 19.6756C1.1154 19.8394 1.09674 20.0311 1.15086 20.2088C1.20497 20.3866 1.3272 20.5354 1.49094 20.6231L17.9538 29.4185V44.8214C17.9538 45.2082 18.2673 45.5212 18.6535 45.5212H22.3379C22.7242 45.5212 23.0377 45.2082 23.0377 44.8214V16.1563H34.0481C34.0509 16.1563 34.0532 16.1554 34.056 16.1554C34.0583 16.1554 34.0607 16.1559 34.063 16.1559C35.9141 16.1172 41.1244 16.4129 42.9802 18.2299C43.4201 18.6605 43.6337 19.141 43.6337 19.699C43.6337 21.2188 41.931 22.338 40.253 23.0713C38.9412 22.5698 37.3262 22.1201 35.3701 21.6946C27.2889 19.9378 25.8171 22.4415 25.561 23.6003C25.4425 24.1335 25.575 24.6733 25.9347 25.1211C26.6475 26.0098 28.145 26.4795 30.2652 26.4795C32.3938 26.4795 36.7995 25.9515 40.2474 24.58C42.962 25.7275 43.6337 26.9983 43.6337 28.5191C43.6337 29.9032 42.7777 30.8824 41.5065 31.5737C36.7617 29.6546 30.727 29.4554 28.3665 30.6039C27.4088 31.0699 27.1933 31.6904 27.1816 32.1289C27.1662 32.6836 27.3612 33.179 27.7452 33.5615C28.8228 34.6345 31.1949 34.6522 33.5316 34.5771C37.245 34.4586 39.8121 33.9044 41.562 33.1179C42.4171 33.5009 43.2153 33.9496 43.9169 34.4689C44.0424 34.5617 44.1879 34.606 44.333 34.606C44.5471 34.606 44.7585 34.508 44.8961 34.3224C45.1256 34.0117 45.0608 33.5736 44.7501 33.3436C44.222 32.9532 43.6454 32.5977 43.0324 32.2763C44.5719 31.1483 45.0337 29.7688 45.0337 28.5196ZM33.3483 14.7564H22.3379C21.9517 14.7564 21.6382 15.0694 21.6382 15.4561V44.1212H19.3533V28.9987C19.3533 28.7402 19.211 28.5032 18.9833 28.3815L2.76775 19.7181L3.8449 17.7028L15.8671 24.1265C16.084 24.2427 16.3453 24.2361 16.5571 24.1093C16.7679 23.9828 16.8971 23.7547 16.8971 23.5089V14.1471C16.8971 13.8887 16.7549 13.6517 16.5272 13.5299L7.68747 8.80708L8.28599 7.68654L18.9684 13.3942C19.0701 13.4483 19.1835 13.4768 19.2982 13.4768H22.2223C22.26 13.4833 22.2988 13.4866 22.3384 13.4866H33.3488L33.3483 14.7564ZM30.2657 25.0805C28.3707 25.0805 27.35 24.6495 27.0268 24.2455C26.905 24.0943 26.9101 23.9833 26.9274 23.904C27.0692 23.2682 28.0316 22.4938 30.5642 22.4938C31.7179 22.4938 33.1981 22.6547 35.0739 23.0624C36.2411 23.3162 37.2562 23.5737 38.136 23.8368C35.0921 24.7474 31.7874 25.0805 30.2657 25.0805ZM33.4878 33.179C32.2866 33.2177 29.4735 33.3073 28.7337 32.5702C28.6222 32.4592 28.5765 32.3388 28.5811 32.1685C28.5821 32.1499 28.653 32.0221 28.9795 31.863C29.7133 31.5056 31.0317 31.3088 32.6313 31.3088C34.682 31.3088 37.1946 31.6325 39.5299 32.3575C37.5575 32.9275 35.2465 33.123 33.4878 33.179Z" fill="black"/>
</svg>
