<svg width="47" height="47" viewBox="0 0 47 47" fill="none" xmlns="http://www.w3.org/2000/svg">
<path d="M33.7812 14.6875C36.2148 14.6875 38.1875 12.7148 38.1875 10.2812C38.1875 7.84775 36.2148 5.875 33.7812 5.875C31.3477 5.875 29.375 7.84775 29.375 10.2812C29.375 12.7148 31.3477 14.6875 33.7812 14.6875Z" stroke="black" stroke-width="2" stroke-miterlimit="10" stroke-linecap="round" stroke-linejoin="round"/>
<path d="M11.75 14.6875L15.8625 10.575C17.625 8.8125 20.5625 8.8125 22.325 10.575L33.9281 22.1781C35.5438 23.7938 38.0406 23.9406 39.95 22.4719L44.0625 19.0938" stroke="black" stroke-width="2" stroke-miterlimit="10" stroke-linecap="round" stroke-linejoin="round"/>
<path d="M24.9687 14.6875L18.0656 21.5906C15.8625 23.7937 16.5969 27.7594 19.5344 28.9344L25.2625 31.1375C26.8781 31.725 28.0531 33.3406 28.0531 35.1031V43.9156" stroke="black" stroke-width="2" stroke-miterlimit="10" stroke-linecap="round" stroke-linejoin="round"/>
<path d="M20.5625 29.375L16.7437 33.1937C15.5687 34.3687 13.6594 34.3687 12.6313 33.1937L7.34375 27.9062" stroke="black" stroke-width="2" stroke-miterlimit="10" stroke-linecap="round" stroke-linejoin="round"/>
<path d="M23.5 26.4375L30.8438 19.0938" stroke="black" stroke-width="2" stroke-miterlimit="10" stroke-linecap="round" stroke-linejoin="round"/>
</svg>
