<svg width="47" height="47" viewBox="0 0 47 47" fill="none" xmlns="http://www.w3.org/2000/svg">
<path d="M2.9375 32.3125L6.75625 30.9906C12.4844 29.0812 18.9469 30.4031 23.5 34.5156C28.0531 38.6281 34.3687 39.95 40.2437 38.0406L44.0625 36.7187" stroke="black" stroke-width="2" stroke-miterlimit="10" stroke-linecap="round" stroke-linejoin="round"/>
<path d="M33.7812 23.5C37.0259 23.5 39.6562 20.8697 39.6562 17.625C39.6562 14.3803 37.0259 11.75 33.7812 11.75C30.5366 11.75 27.9062 14.3803 27.9062 17.625C27.9062 20.8697 30.5366 23.5 33.7812 23.5Z" stroke="black" stroke-width="2" stroke-miterlimit="10" stroke-linecap="round" stroke-linejoin="round"/>
<path d="M26.4375 36.7188L27.9063 35.25C30.4032 32.7531 30.4032 28.7875 27.9063 26.4375L16.8906 15.4219C14.8344 13.3656 11.6031 13.3656 9.5469 15.4219L3.0844 21.8844C2.20315 22.7656 2.20315 24.2344 3.0844 25.1156C3.81877 25.85 4.99377 25.9969 6.0219 25.4094L13.2188 20.5625L17.625 24.9688L12.4844 30.1094" stroke="black" stroke-width="2" stroke-miterlimit="10" stroke-linecap="round" stroke-linejoin="round"/>
</svg>
