<svg width="47" height="47" viewBox="0 0 47 47" fill="none" xmlns="http://www.w3.org/2000/svg">
<path d="M23.3115 4.87214C13.0994 4.87214 4.7919 13.1801 4.7919 23.3918C4.7919 33.6035 13.0998 41.9114 23.3115 41.9114C33.5232 41.9114 41.8312 33.6035 41.8312 23.3918C41.8312 13.1801 33.5237 4.87214 23.3115 4.87214ZM37.7693 14.2395C29.6755 14.6495 24.1512 21.0901 22.9239 22.658C21.8117 22.5493 18.6344 22.1159 15.318 20.569C16.2898 18.2486 20.5774 9.62765 31.055 8.12972C33.8027 9.53015 36.1235 11.649 37.7693 14.2395ZM23.3115 6.27164C25.2018 6.27164 27.0193 6.5842 28.7211 7.1524C19.2301 9.4849 15.1445 17.4206 14.0692 19.9336C12.0007 18.7879 9.97706 17.1696 8.46233 14.8875C11.4195 9.74474 16.9657 6.27164 23.3115 6.27164ZM6.1914 23.3918C6.1914 20.8605 6.74794 18.4581 7.73832 16.294C12.6277 22.95 21.3093 23.9418 22.9985 24.0724C23.4193 25.0936 24.4806 27.9695 24.7162 31.4846C21.8878 31.8644 12.7336 32.3663 6.22966 24.4825C6.20727 24.1209 6.1914 23.758 6.1914 23.3918ZM22.9379 40.5026C14.8786 40.3286 8.17403 34.5626 6.56227 26.9353C11.7176 32.0855 17.9818 33.0521 21.9549 33.0521C23.1147 33.0521 24.078 32.9695 24.7628 32.8851C24.76 35.3337 24.2954 37.9947 22.9379 40.5026ZM32.726 37.6807C30.3412 39.257 27.5413 40.2507 24.5282 40.4639C28.1146 32.9919 24.8687 24.8356 24.1988 23.3129C25.0553 22.2745 27.2847 19.809 30.4924 17.943C32.0888 20.2191 36.8331 28.2019 32.726 37.6807ZM34.8243 36.0521C37.6079 27.1205 33.4197 19.7521 31.7309 17.2811C33.722 16.3075 36.0214 15.6194 38.5554 15.6138C39.752 17.9496 40.4321 20.5918 40.4321 23.3918C40.4321 28.4029 38.2676 32.9182 34.8243 36.0521Z" fill="black"/>
</svg>
