<svg width="429" height="429" viewBox="0 0 429 429" fill="none" xmlns="http://www.w3.org/2000/svg">
<g clip-path="url(#clip0_140_2)">
<path d="M429 0H0V429H429V0Z" fill="white"/>
<g clip-path="url(#clip1_140_2)">
<g clip-path="url(#clip2_140_2)">
<g clip-path="url(#clip3_140_2)">
<g clip-path="url(#clip4_140_2)">
<g clip-path="url(#clip5_140_2)">
<g clip-path="url(#clip6_140_2)">
<g clip-path="url(#clip7_140_2)">
<g clip-path="url(#clip8_140_2)">
<path d="M230.94 191.214L226.683 195.475L235.202 203.987L239.459 199.725L230.94 191.214Z" stroke="#24A8DF" stroke-width="3.09358" stroke-miterlimit="10" stroke-linecap="round" stroke-linejoin="round"/>
<path d="M195.464 226.687L191.208 230.942L199.722 239.456L203.978 235.2L195.464 226.687Z" stroke="#24A8DF" stroke-width="3.09358" stroke-miterlimit="10" stroke-linecap="round" stroke-linejoin="round"/>
<path d="M184.113 263.574L167.088 246.551C167.088 246.551 165.811 247.822 164.251 249.387C162.688 250.945 162.688 253.501 164.251 255.059L175.6 266.413C177.165 267.976 179.715 267.976 181.279 266.413C182.838 264.854 184.113 263.574 184.113 263.574Z" stroke="#24A8DF" stroke-width="3.09358" stroke-miterlimit="10" stroke-linecap="round" stroke-linejoin="round"/>
<path d="M198.305 260.739L169.926 232.36L164.253 238.033C162.689 239.598 162.689 242.149 164.253 243.712L186.954 266.412C188.517 267.975 191.069 267.975 192.627 266.412L198.305 260.739Z" stroke="#24A8DF" stroke-width="3.09358" stroke-miterlimit="10" stroke-linecap="round" stroke-linejoin="round"/>
<path d="M215.331 255.061L175.6 215.334L167.088 223.846C165.528 225.408 165.528 227.962 167.088 229.522L201.139 263.573C202.704 265.132 205.255 265.132 206.818 263.573L215.331 255.061Z" stroke="#24A8DF" stroke-width="3.09358" stroke-miterlimit="10" stroke-linecap="round" stroke-linejoin="round"/>
<path d="M246.552 167.089L263.572 184.115C263.572 184.115 264.853 182.84 266.413 181.28C267.972 179.717 267.972 177.165 266.413 175.603L255.06 164.255C253.495 162.69 250.945 162.69 249.387 164.255C247.822 165.814 246.552 167.089 246.552 167.089Z" stroke="#24A8DF" stroke-width="3.09358" stroke-miterlimit="10" stroke-linecap="round" stroke-linejoin="round"/>
<path d="M232.361 169.929L260.739 198.308L266.413 192.63C267.977 191.071 267.977 188.515 266.413 186.957L243.713 164.255C242.15 162.69 239.598 162.69 238.034 164.255L232.361 169.929Z" stroke="#24A8DF" stroke-width="3.09358" stroke-miterlimit="10" stroke-linecap="round" stroke-linejoin="round"/>
<path d="M215.331 175.607L255.061 215.334L263.574 206.82C265.138 205.257 265.138 202.705 263.574 201.143L229.52 167.089C227.961 165.53 225.405 165.53 223.842 167.089L215.331 175.607Z" stroke="#24A8DF" stroke-width="3.09358" stroke-miterlimit="10" stroke-linecap="round" stroke-linejoin="round"/>
<path d="M171.347 219.589L168.507 222.427L208.224 262.167L211.064 259.329L171.347 219.589Z" stroke="#24A8DF" stroke-width="3.09358" stroke-miterlimit="10" stroke-linecap="round" stroke-linejoin="round"/>
<path d="M222.437 168.513L219.598 171.351L259.312 211.087L262.151 208.249L222.437 168.513Z" stroke="#24A8DF" stroke-width="3.09358" stroke-miterlimit="10" stroke-linecap="round" stroke-linejoin="round"/>
<path d="M184.113 189.795C185.682 191.363 185.682 193.904 184.119 195.469C182.551 197.038 180.009 197.038 178.44 195.469L161.414 178.442L184.113 201.147C189.08 206.107 195.929 209.17 203.491 209.17C212.767 221.959 226.897 238.244 243.713 255.061L249.387 260.734C252.524 263.87 257.603 263.87 260.739 260.734C263.871 257.602 263.875 252.518 260.739 249.382L255.061 243.713C238.245 226.896 221.958 212.77 209.169 203.497C209.169 196.483 206.493 189.469 201.145 184.121L178.44 161.414L195.465 178.442C197.033 180.009 197.033 182.552 195.465 184.121C193.897 185.684 191.36 185.684 189.791 184.121L172.765 167.089L189.791 184.122C191.36 185.684 191.358 188.227 189.791 189.795C188.224 191.364 185.682 191.364 184.113 189.795ZM184.113 189.795L167.087 172.768" stroke="#24A8DF" stroke-width="3.09358" stroke-miterlimit="10" stroke-linecap="round" stroke-linejoin="round"/>
<path d="M224.021 215.161L235.199 203.987L226.687 195.469L214.586 207.566C217.592 209.879 220.752 212.426 224.021 215.161Z" stroke="#24A8DF" stroke-width="3.09358" stroke-miterlimit="10" stroke-linecap="round" stroke-linejoin="round"/>
<path d="M207.559 214.593L195.466 226.686L203.98 235.2L215.158 224.021C212.424 220.751 209.877 217.594 207.559 214.593Z" stroke="#24A8DF" stroke-width="3.09358" stroke-miterlimit="10" stroke-linecap="round" stroke-linejoin="round"/>
</g>
</g>
<path d="M96.5282 183.703L68.2314 174.129L74.1334 156.687L77.4377 157.804L72.7638 171.619L81.6269 174.618L85.6885 162.612L88.9928 163.73L84.9313 175.737L94.4508 178.957L99.2105 164.889L102.515 166.008L96.5282 183.703Z" fill="#0718C4"/>
<path d="M106.238 159.033L86.6612 134.554L89.3918 130.462L119.51 139.147L117.211 142.59L110.537 140.598L103.963 150.448L108.363 155.848L106.238 159.033ZM101.642 147.642L107.031 139.568L93.7386 135.558C93.0919 135.374 92.0441 134.957 90.5973 134.307L90.5018 134.449C91.6805 135.552 92.4699 136.357 92.8678 136.862L101.642 147.642Z" fill="#0718C4"/>
<path d="M132.527 126.777C130.368 128.801 128.11 129.923 125.754 130.144C123.391 130.369 121.157 129.359 119.051 127.113L118.491 126.453L121.387 123.739L121.975 124.429C123.186 125.722 124.503 126.33 125.924 126.255C127.341 126.174 128.695 125.529 129.987 124.318C131.45 122.946 132.286 121.576 132.497 120.21C132.707 118.843 132.265 117.576 131.171 116.408C130.436 115.624 129.618 115.188 128.715 115.099C127.812 115.01 126.9 115.118 125.979 115.426C125.053 115.738 123.862 116.241 122.405 116.933C120.593 117.755 119.061 118.351 117.812 118.725C116.567 119.093 115.263 119.15 113.896 118.901C112.526 118.655 111.215 117.866 109.964 116.531C108.179 114.627 107.466 112.572 107.824 110.365C108.182 108.157 109.378 106.1 111.412 104.192C113.446 102.285 115.566 101.244 117.77 101.069C119.975 100.893 122.049 101.844 123.995 103.919L124.353 104.301L121.457 107.015L121.012 106.54C119.996 105.456 118.837 104.947 117.537 105.017C116.232 105.091 115.016 105.655 113.89 106.711C112.686 107.839 111.956 109.011 111.701 110.225C111.446 111.439 111.782 112.543 112.711 113.534C113.407 114.276 114.191 114.686 115.064 114.764C115.932 114.848 116.819 114.733 117.724 114.42C118.625 114.112 119.795 113.624 121.235 112.956C123.069 112.104 124.608 111.484 125.855 111.097C127.1 110.71 128.408 110.638 129.779 110.884C131.144 111.134 132.433 111.905 133.644 113.197C135.828 115.526 136.756 117.841 136.424 120.14C136.094 122.44 134.794 124.651 132.527 126.777Z" fill="#0718C4"/>
<path d="M154.76 110.242L148.839 99.3875L131.971 88.6443L135.681 86.6215L148.961 95.1533L149.111 95.0707L149.019 79.3478L152.268 77.576L152.202 97.5535L158.122 108.409L154.76 110.242Z" fill="#0718C4"/>
<path d="M191.747 96.3898L187.497 66.8221L204.562 64.3693L205.058 67.8227L191.784 69.7307L193.159 79.2974L204.881 77.6125L205.376 81.0552L193.654 82.7401L195.538 95.845L191.747 96.3898Z" fill="#0718C4"/>
<path d="M220.207 94.203L221.261 64.35L225.089 64.4851L224.035 94.3381L220.207 94.203Z" fill="#0718C4"/>
<path d="M242.297 97.5814L248.452 71.9261L240.537 70.0267L241.351 66.6344L260.906 71.3266L260.092 74.7189L252.177 72.8195L246.022 98.4748L242.297 97.5814Z" fill="#0718C4"/>
<path d="M263.317 104.265L276.637 77.5278L279.599 79.0025L281.17 100.752C281.21 101.582 281.157 103.05 281.014 105.155L281.148 105.175C281.98 103.316 282.531 102.113 282.803 101.566L291.172 84.7682L294.257 86.3051L280.935 113.043L278.09 111.625L276.56 89.5988C276.501 88.6635 276.524 87.1846 276.625 85.1618L276.492 85.1425C275.766 86.8553 275.228 88.0608 274.88 88.7611L266.392 105.797L263.317 104.265Z" fill="#0718C4"/>
<path d="M290.486 120.384L310.09 97.8441L323.984 109.929L321.694 112.561L310.69 102.99L304.55 110.05L314.113 118.367L311.824 120.999L302.261 112.682L295.665 120.265L306.87 130.011L304.581 132.644L290.486 120.384Z" fill="#0718C4"/>
<path d="M316.046 148.931C314.36 146.499 313.581 144.101 313.707 141.738C313.83 139.368 315.156 137.307 317.687 135.551L318.422 135.093L320.683 138.355L319.914 138.836C318.459 139.845 317.664 141.058 317.53 142.476C317.402 143.889 317.842 145.324 318.851 146.778C319.994 148.426 321.227 149.454 322.548 149.863C323.869 150.27 325.187 150.018 326.502 149.106C327.385 148.494 327.936 147.749 328.157 146.868C328.378 145.988 328.404 145.071 328.234 144.115C328.061 143.153 327.738 141.901 327.266 140.359C326.718 138.446 326.351 136.843 326.166 135.552C325.984 134.267 326.117 132.967 326.566 131.654C327.008 130.333 327.981 129.153 329.484 128.111C331.629 126.624 333.767 126.218 335.898 126.896C338.029 127.573 339.89 129.057 341.478 131.348C343.066 133.639 343.786 135.888 343.638 138.095C343.489 140.301 342.245 142.216 339.907 143.836L339.477 144.134L337.217 140.873L337.751 140.502C338.972 139.654 339.644 138.583 339.767 137.286C339.885 135.984 339.504 134.698 338.625 133.431C337.684 132.075 336.632 131.182 335.468 130.751C334.305 130.321 333.165 130.492 332.048 131.266C331.213 131.846 330.691 132.562 330.486 133.414C330.276 134.26 330.26 135.154 330.437 136.096C330.61 137.032 330.922 138.261 331.371 139.784C331.945 141.723 332.333 143.336 332.535 144.626C332.737 145.915 332.616 147.219 332.171 148.538C331.724 149.852 330.773 151.014 329.316 152.024C326.692 153.844 324.267 154.422 322.042 153.758C319.816 153.094 317.817 151.485 316.046 148.931Z" fill="#0718C4"/>
<path d="M329.462 175.313C328.41 172.548 328.23 170.033 328.921 167.769C329.609 165.499 331.393 163.815 334.271 162.72L335.094 162.453L336.505 166.161L335.642 166.444C333.987 167.074 332.924 168.061 332.454 169.403C331.989 170.744 332.073 172.242 332.702 173.898C333.416 175.773 334.365 177.068 335.549 177.781C336.734 178.494 338.073 178.567 339.57 177.997C340.573 177.616 341.288 177.024 341.714 176.222C342.139 175.421 342.385 174.536 342.45 173.568C342.514 172.593 342.501 171.3 342.413 169.69C342.341 167.7 342.37 166.057 342.501 164.76C342.634 163.468 343.076 162.239 343.825 161.071C344.573 159.897 345.801 158.984 347.51 158.334C349.95 157.407 352.123 157.527 354.029 158.697C355.935 159.867 357.384 161.754 358.375 164.36C359.366 166.966 359.525 169.321 358.849 171.427C358.174 173.534 356.507 175.092 353.848 176.104L353.359 176.29L351.948 172.58L352.557 172.35C353.945 171.821 354.856 170.943 355.286 169.712C355.714 168.477 355.654 167.137 355.105 165.696C354.518 164.154 353.712 163.034 352.685 162.336C351.659 161.638 350.511 161.53 349.24 162.013C348.29 162.374 347.612 162.944 347.208 163.722C346.802 164.494 346.571 165.358 346.516 166.315C346.459 167.265 346.466 168.533 346.537 170.119C346.628 172.138 346.616 173.799 346.502 175.097C346.388 176.396 345.956 177.634 345.209 178.808C344.458 179.976 343.256 180.875 341.6 181.506C338.615 182.641 336.123 182.619 334.121 181.439C332.12 180.259 330.567 178.217 329.462 175.313Z" fill="#0718C4"/>
<path d="M74.6664 259.519L103.446 249.743L109.471 267.481L106.117 268.622L101.345 254.57L92.324 257.634L96.4725 269.846L93.1187 270.986L88.9703 258.773L79.2728 262.068L84.1312 276.371L80.7775 277.51L74.6664 259.519Z" fill="#0718C4"/>
<path d="M87.0344 289.571L117.661 280.68L120.451 284.846L100.569 309.782L98.2249 306.28L102.696 300.782L95.993 290.774L89.2009 292.806L87.0344 289.571ZM99.5333 289.675L105.03 297.884L113.961 286.946C114.39 286.411 115.193 285.591 116.371 284.485L116.269 284.334C114.775 285.017 113.711 285.448 113.076 285.625L99.5333 289.675Z" fill="#0718C4"/>
<path d="M116.196 326.763C113.993 324.704 112.7 322.482 112.318 320.1C111.93 317.724 112.808 315.389 114.949 313.098L115.585 312.48L118.532 315.235L117.867 315.883C116.633 317.204 116.103 318.582 116.277 320.02C116.456 321.453 117.203 322.784 118.518 324.013C120.008 325.407 121.453 326.163 122.852 326.282C124.26 326.401 125.517 325.868 126.625 324.683C127.372 323.883 127.762 323.024 127.791 322.108C127.825 321.186 127.653 320.266 127.275 319.348C126.896 318.43 126.308 317.252 125.51 315.814C124.549 314.029 123.839 312.519 123.38 311.281C122.921 310.044 122.773 308.722 122.936 307.318C123.095 305.909 123.81 304.523 125.084 303.162C126.895 301.224 128.937 300.363 131.209 300.579C133.47 300.794 135.638 301.871 137.711 303.809C139.779 305.742 140.979 307.822 141.31 310.05C141.632 312.279 140.804 314.451 138.828 316.566L138.464 316.955L135.518 314.201L135.977 313.711C137.007 312.609 137.439 311.397 137.272 310.074C137.113 308.756 136.461 307.562 135.318 306.494C134.087 305.343 132.849 304.677 131.605 304.498C130.357 304.323 129.259 304.743 128.312 305.756C127.603 306.514 127.238 307.337 127.217 308.224C127.191 309.115 127.365 310.007 127.738 310.901C128.115 311.798 128.696 312.954 129.478 314.367C130.455 316.176 131.183 317.698 131.661 318.936C132.141 320.172 132.304 321.493 132.15 322.896C131.986 324.301 131.288 325.664 130.053 326.983C127.833 329.357 125.549 330.453 123.197 330.271C120.835 330.089 118.502 328.92 116.196 326.764V326.763Z" fill="#0718C4"/>
<path d="M143.897 345.889L149.9 334.836L149.76 314.484L153.537 316.537L153.59 332.603L153.74 332.683L167.122 323.914L170.431 325.712L153.331 336.698L147.328 347.752L143.897 345.889Z" fill="#0718C4"/>
<path d="M188.305 362.2L192.644 332.117L210.003 334.619L209.498 338.125L195.992 336.178L194.588 345.913L206.521 347.634L206.014 351.14L194.083 349.419L192.16 362.756L188.305 362.2Z" fill="#0718C4"/>
<path d="M220.827 364.65L219.8 334.272L223.691 334.141L224.719 364.518L220.827 364.65Z" fill="#0718C4"/>
<path d="M247.365 360.701L241.155 334.576L233.091 336.494L232.271 333.048L252.19 328.313L253.009 331.76L244.944 333.676L251.153 359.801L247.365 360.701Z" fill="#0718C4"/>
<path d="M273.193 352.351L259.703 325.113L262.714 323.621L281.315 335.72C282.019 336.197 283.18 337.138 284.796 338.544L284.891 338.449C283.896 336.632 283.261 335.446 282.988 334.892L274.512 317.779L277.648 316.226L291.138 343.464L288.241 344.898L269.437 332.603C268.649 332.072 267.466 331.142 265.888 329.812L265.783 329.913C266.731 331.555 267.382 332.732 267.735 333.446L276.329 350.798L273.193 352.351Z" fill="#0718C4"/>
<path d="M305.317 333.06L285.42 310.082L299.581 297.818L301.9 300.496L290.682 310.211L296.92 317.413L306.67 308.969L308.988 311.646L299.237 320.09L305.942 327.832L317.362 317.943L319.681 320.621L305.317 333.06Z" fill="#0718C4"/>
<path d="M335.754 300.788C334.03 303.263 332.017 304.859 329.713 305.579C327.416 306.302 324.98 305.768 322.406 303.974L321.704 303.434L324.009 300.124L324.746 300.689C326.228 301.722 327.669 302.048 329.068 301.671C330.461 301.289 331.671 300.359 332.699 298.882C333.866 297.207 334.408 295.669 334.325 294.268C334.241 292.858 333.534 291.689 332.204 290.763C331.305 290.137 330.4 289.875 329.487 289.977C328.57 290.075 327.683 290.377 326.829 290.882C325.975 291.387 324.894 292.138 323.585 293.134C321.957 294.34 320.563 295.258 319.403 295.891C318.244 296.523 316.958 296.857 315.545 296.896C314.127 296.94 312.653 296.43 311.124 295.365C308.947 293.85 307.802 291.952 307.691 289.673C307.58 287.403 308.336 285.105 309.958 282.775C311.575 280.452 313.463 278.967 315.621 278.32C317.781 277.683 320.048 278.191 322.424 279.846L322.861 280.151L320.557 283.461L320.006 283.076C318.768 282.214 317.507 281.959 316.221 282.313C314.94 282.661 313.852 283.476 312.958 284.759C311.995 286.143 311.513 287.463 311.513 288.72C311.519 289.981 312.091 291.008 313.229 291.8C314.082 292.394 314.947 292.637 315.828 292.53C316.714 292.427 317.572 292.128 318.403 291.632C319.237 291.13 320.298 290.391 321.585 289.415C323.235 288.189 324.638 287.251 325.794 286.6C326.949 285.949 328.233 285.598 329.645 285.55C331.058 285.511 332.506 286.008 333.989 287.041C336.657 288.898 338.068 291.004 338.224 293.357C338.381 295.719 337.558 298.197 335.754 300.788Z" fill="#0718C4"/>
<path d="M351.952 269.249C350.874 272.065 349.304 274.1 347.241 275.351C345.185 276.605 342.693 276.673 339.763 275.552L338.951 275.196L340.391 271.429L341.244 271.8C342.931 272.446 344.408 272.417 345.674 271.714C346.934 271.008 347.886 269.814 348.528 268.134C349.257 266.227 349.414 264.604 348.998 263.264C348.577 261.915 347.61 260.951 346.095 260.372C345.071 259.98 344.13 259.944 343.27 260.262C342.403 260.578 341.615 261.084 340.907 261.78C340.199 262.476 339.329 263.465 338.3 264.746C337.009 266.308 335.877 267.535 334.903 268.427C333.93 269.32 332.762 269.954 331.399 270.331C330.034 270.715 328.481 270.575 326.741 269.907C324.264 268.959 322.696 267.392 322.04 265.208C321.387 263.032 321.568 260.619 322.582 257.967C323.594 255.324 325.068 253.428 327.007 252.282C328.951 251.144 331.274 251.093 333.978 252.126L334.475 252.317L333.035 256.084L332.406 255.844C330.998 255.305 329.712 255.361 328.55 256.013C327.389 256.658 326.529 257.711 325.97 259.173C325.368 260.747 325.218 262.145 325.521 263.364C325.83 264.587 326.632 265.446 327.928 265.941C328.897 266.312 329.797 266.34 330.625 266.025C331.46 265.713 332.222 265.215 332.909 264.534C333.599 263.846 334.451 262.874 335.464 261.617C336.771 260.031 337.907 258.782 338.872 257.872C339.838 256.961 340.999 256.314 342.358 255.927C343.721 255.55 345.246 255.684 346.933 256.33C349.97 257.491 351.845 259.195 352.563 261.441C353.284 263.697 353.08 266.3 351.952 269.249Z" fill="#0718C4"/>
<path d="M68.6936 217.877C68.6936 211.465 73.892 206.266 80.3045 206.266C86.717 206.266 91.9154 211.465 91.9143 217.877C91.9143 224.29 86.7159 229.488 80.3045 229.488C73.892 229.488 68.6936 224.29 68.6936 217.877Z" fill="#0718C4"/>
<path d="M337.547 217.877C337.547 211.465 342.745 206.266 349.158 206.266C355.57 206.266 360.769 211.465 360.769 217.877C360.769 224.29 355.57 229.488 349.158 229.488C342.745 229.488 337.547 224.29 337.547 217.877Z" fill="#0718C4"/>
</g>
</g>
</g>
</g>
</g>
</g>
</g>
<defs>
<clipPath id="clip0_140_2">
<rect width="429" height="429" fill="white"/>
</clipPath>
<clipPath id="clip1_140_2">
<rect width="300.3" height="300.3" fill="white" transform="translate(64.35 64.35)"/>
</clipPath>
<clipPath id="clip2_140_2">
<rect width="300.3" height="300.3" fill="white" transform="translate(64.35 64.35)"/>
</clipPath>
<clipPath id="clip3_140_2">
<rect width="300.3" height="300.3" fill="white" transform="translate(64.35 64.35)"/>
</clipPath>
<clipPath id="clip4_140_2">
<rect width="300.3" height="300.3" fill="white" transform="translate(64.35 64.35)"/>
</clipPath>
<clipPath id="clip5_140_2">
<rect width="300.3" height="300.3" fill="white" transform="translate(64.35 64.35)"/>
</clipPath>
<clipPath id="clip6_140_2">
<rect width="300.3" height="300.3" fill="white" transform="translate(64.35 64.35)"/>
</clipPath>
<clipPath id="clip7_140_2">
<rect width="106.172" height="106.171" fill="white" transform="translate(161.414 161.414)"/>
</clipPath>
<clipPath id="clip8_140_2">
<rect width="106.172" height="106.171" fill="white" transform="translate(161.414 161.414)"/>
</clipPath>
</defs>
</svg>
